<?xml version="1.0" encoding="utf-8"?>
<!-- Generator: Adobe Illustrator 25.0.0, SVG Export Plug-In . SVG Version: 6.00 Build 0)  -->
<svg version="1.1" id="Layer_1" xmlns="http://www.w3.org/2000/svg" xmlns:xlink="http://www.w3.org/1999/xlink" x="0px" y="0px"
	 viewBox="0 0 500 500" style="enable-background:new 0 0 500 500;" xml:space="preserve">
<style type="text/css">
	.st0{clip-path:url(#SVGID_2_);}
	.st1{fill-rule:evenodd;clip-rule:evenodd;fill:url(#SVGID_3_);}
	.st2{opacity:0.8;fill-rule:evenodd;clip-rule:evenodd;fill:#FFEFB1;enable-background:new    ;}
	.st3{fill-rule:evenodd;clip-rule:evenodd;fill:url(#SVGID_4_);}
	.st4{fill-rule:evenodd;clip-rule:evenodd;fill:url(#SVGID_5_);}
	.st5{opacity:0.3;}
	.st6{fill-rule:evenodd;clip-rule:evenodd;fill:#C76A6A;}
	.st7{opacity:0.5;}
	.st8{fill-rule:evenodd;clip-rule:evenodd;fill:#E66A6A;}
	.st9{opacity:0.2;}
	.st10{fill-rule:evenodd;clip-rule:evenodd;fill:#FFEFB1;}
	.st11{opacity:0.58;fill-rule:evenodd;clip-rule:evenodd;fill:#C76A6A;enable-background:new    ;}
	.st12{opacity:0.5;fill-rule:evenodd;clip-rule:evenodd;fill:#C76A6A;enable-background:new    ;}
	.st13{fill-rule:evenodd;clip-rule:evenodd;fill:url(#SVGID_6_);}
	.st14{fill-rule:evenodd;clip-rule:evenodd;fill:#A478A4;}
	.st15{fill-rule:evenodd;clip-rule:evenodd;fill:url(#SVGID_7_);}
	.st16{fill-rule:evenodd;clip-rule:evenodd;fill:#EF9FAE;}
	.st17{fill-rule:evenodd;clip-rule:evenodd;fill:#FFB0A4;}
	.st18{fill-rule:evenodd;clip-rule:evenodd;fill:#FFBDA4;}
	.st19{fill-rule:evenodd;clip-rule:evenodd;fill:#FFEACA;}
	.st20{opacity:0.2;fill-rule:evenodd;clip-rule:evenodd;fill:#FFEFB1;enable-background:new    ;}
	.st21{opacity:0.4;fill-rule:evenodd;clip-rule:evenodd;fill:#FFEFB1;enable-background:new    ;}
	.st22{opacity:0.76;fill-rule:evenodd;clip-rule:evenodd;fill:#FFEFB1;enable-background:new    ;}
	.st23{opacity:0.3;fill-rule:evenodd;clip-rule:evenodd;fill:#C76A6A;enable-background:new    ;}
	.st24{opacity:0.8;fill-rule:evenodd;clip-rule:evenodd;fill:#C79FAB;enable-background:new    ;}
	.st25{fill-rule:evenodd;clip-rule:evenodd;fill:#D96A6A;}
	.st26{fill-rule:evenodd;clip-rule:evenodd;fill:url(#SVGID_8_);}
	.st27{opacity:0.5;fill-rule:evenodd;clip-rule:evenodd;fill:#E0D6E3;enable-background:new    ;}
	.st28{opacity:0.99;}
	.st29{fill:url(#SVGID_9_);}
	.st30{fill:none;}
	.st31{fill:url(#SVGID_10_);}
	.st32{fill:url(#SVGID_11_);}
	.st33{opacity:0.5;enable-background:new    ;}
	.st34{fill:url(#SVGID_12_);}
	.st35{fill:url(#SVGID_13_);}
	.st36{fill:url(#SVGID_14_);}
	.st37{opacity:0.8;fill:#EA936A;enable-background:new    ;}
	.st38{fill:url(#SVGID_15_);}
	.st39{fill:url(#SVGID_16_);}
	.st40{fill:url(#SVGID_17_);}
	.st41{fill:url(#SVGID_18_);}
	.st42{fill:url(#SVGID_19_);}
	.st43{fill:url(#SVGID_20_);}
	.st44{opacity:0.5;fill:url(#SVGID_21_);enable-background:new    ;}
	.st45{opacity:0.3;fill:url(#SVGID_22_);enable-background:new    ;}
	.st46{opacity:0.63;fill:#CE0000;enable-background:new    ;}
	.st47{opacity:0.5;fill:url(#SVGID_23_);enable-background:new    ;}
	.st48{opacity:0.8;fill:#FFEFB1;enable-background:new    ;}
	.st49{opacity:0.2;fill:#FFEFB1;enable-background:new    ;}
	.st50{fill:#B64800;}
	.st51{opacity:0.5;fill:#FFEFB1;enable-background:new    ;}
	.st52{fill:#FFEFB1;}
	.st53{opacity:0.3;fill:#FFA66A;enable-background:new    ;}
	.st54{fill:#EC8600;}
	.st55{opacity:0.4;fill:#FFEFB1;enable-background:new    ;}
	.st56{opacity:0.3;fill:#FFDBB1;enable-background:new    ;}
	.st57{opacity:0.8;fill:#D1726A;enable-background:new    ;}
	.st58{fill:url(#SVGID_24_);}
	.st59{fill:url(#SVGID_25_);}
	.st60{fill:url(#SVGID_26_);}
	.st61{fill:url(#SVGID_27_);}
	.st62{opacity:0.5;fill:#AB2C51;enable-background:new    ;}
	.st63{fill:#FFFFFF;}
	.st64{fill:url(#SVGID_28_);}
	.st65{fill:url(#SVGID_29_);}
	.st66{fill:url(#SVGID_30_);}
	.st67{fill:url(#SVGID_31_);}
	.st68{fill:url(#SVGID_32_);}
	.st69{fill:url(#SVGID_33_);}
	.st70{fill:url(#SVGID_34_);}
	.st71{fill:url(#SVGID_35_);}
	.st72{fill:url(#SVGID_36_);}
	.st73{fill:#FFFFDD;}
	.st74{fill:#FFFF72;}
	.st75{fill:url(#SVGID_37_);}
	.st76{fill:url(#SVGID_38_);}
	.st77{fill-rule:evenodd;clip-rule:evenodd;fill:url(#SVGID_39_);}
	.st78{fill-rule:evenodd;clip-rule:evenodd;fill:url(#SVGID_40_);}
	.st79{fill-rule:evenodd;clip-rule:evenodd;fill:url(#SVGID_41_);}
	.st80{fill-rule:evenodd;clip-rule:evenodd;fill:url(#SVGID_42_);}
	.st81{fill-rule:evenodd;clip-rule:evenodd;fill:url(#SVGID_43_);}
	.st82{fill-rule:evenodd;clip-rule:evenodd;fill:url(#SVGID_44_);}
	.st83{fill-rule:evenodd;clip-rule:evenodd;fill:url(#SVGID_45_);}
	.st84{opacity:0.8;fill-rule:evenodd;clip-rule:evenodd;fill:#E090AC;enable-background:new    ;}
	.st85{opacity:0.7;fill-rule:evenodd;clip-rule:evenodd;fill:#E0908B;enable-background:new    ;}
	.st86{opacity:0.5;fill-rule:evenodd;clip-rule:evenodd;fill:#E0908B;enable-background:new    ;}
	.st87{opacity:0.5;fill-rule:evenodd;clip-rule:evenodd;fill:#FFEFB1;enable-background:new    ;}
	.st88{opacity:0.3;fill-rule:evenodd;clip-rule:evenodd;fill:#E0906A;enable-background:new    ;}
	.st89{fill:#E090AC;}
	.st90{fill-rule:evenodd;clip-rule:evenodd;fill:url(#SVGID_46_);}
	.st91{fill:url(#SVGID_47_);}
	.st92{fill:url(#SVGID_48_);}
	.st93{fill:url(#SVGID_49_);}
	.st94{fill-rule:evenodd;clip-rule:evenodd;fill:url(#SVGID_50_);}
	.st95{fill:url(#SVGID_51_);}
	.st96{fill:url(#SVGID_52_);}
	.st97{opacity:0.5;fill:url(#SVGID_53_);enable-background:new    ;}
	.st98{fill:url(#SVGID_54_);}
	.st99{fill:url(#SVGID_55_);}
	.st100{fill:url(#SVGID_56_);}
	.st101{fill:url(#SVGID_57_);}
	.st102{fill-rule:evenodd;clip-rule:evenodd;fill:url(#SVGID_58_);}
	.st103{fill-rule:evenodd;clip-rule:evenodd;fill:url(#SVGID_59_);}
	.st104{fill-rule:evenodd;clip-rule:evenodd;fill:url(#SVGID_60_);}
	.st105{fill-rule:evenodd;clip-rule:evenodd;fill:url(#SVGID_61_);}
	.st106{opacity:0.5;fill:#C76A6A;enable-background:new    ;}
	.st107{fill:url(#SVGID_62_);}
	.st108{fill:#C76A6A;}
	.st109{fill:url(#SVGID_63_);}
	.st110{fill:#EA936A;}
	.st111{fill:#FF8E31;}
	.st112{fill:#72596E;}
</style>
<g id="background">
	<g>
		<g>
			<defs>
				<rect id="SVGID_1_" y="0" width="500" height="500"/>
			</defs>
			<clipPath id="SVGID_2_">
				<use xlink:href="#SVGID_1_"  style="overflow:visible;"/>
			</clipPath>
			<g class="st0">
				
					<linearGradient id="SVGID_3_" gradientUnits="userSpaceOnUse" x1="250" y1="0.3465" x2="250" y2="500.3465" gradientTransform="matrix(1 0 0 -1 0 500.3465)">
					<stop  offset="0" style="stop-color:#F3D4E7"/>
					<stop  offset="0.1069" style="stop-color:#F4D2E2"/>
					<stop  offset="1" style="stop-color:#FFC4B8"/>
				</linearGradient>
				<rect y="0" class="st1" width="500" height="500"/>
				<path class="st2" d="M18.3,324.1c-46.4-30.5,48.3-185.9,243.1-188.9c194.9-3,252.6,136.3,247.7,182.5
					C504.2,364,82.1,366.1,18.3,324.1z"/>
				<g>
					
						<linearGradient id="SVGID_4_" gradientUnits="userSpaceOnUse" x1="0" y1="86.8465" x2="500" y2="86.8465" gradientTransform="matrix(1 0 0 -1 0 500.3465)">
						<stop  offset="0" style="stop-color:#F65C1E"/>
						<stop  offset="1" style="stop-color:#EF6113"/>
					</linearGradient>
					<polygon class="st3" points="0,330.8 500,326.8 500,500.2 0,500.2 					"/>
					
						<linearGradient id="SVGID_5_" gradientUnits="userSpaceOnUse" x1="0" y1="42.8465" x2="500" y2="42.8465" gradientTransform="matrix(1 0 0 -1 0 500.3465)">
						<stop  offset="0" style="stop-color:#A2131E"/>
						<stop  offset="1" style="stop-color:#A52913"/>
					</linearGradient>
					<path class="st4" d="M0,414.9c0,0,301.9,8.8,500,5.3v79.9H0V414.9z"/>
					<g class="st5">
						<path class="st6" d="M70.5,500.2c0,0,31.8-73.1,87.9-81.6c0,0,196-6,274.4-19.4C511,385.8,274.6,329,133.1,341
							s-15,34.6,64.7,19.8c0,0-85.8,32.6-197.8,23.5v-12c0,0,98.7,7.7,123,2.7s-81.1-11.5-84.9-23.4
							c-3.8-11.9,165.6-24.1,266.8-12.9s166,40.9,177.3,52.2c11.4,11.3-229.3,28.8-229.3,28.8L96.5,500.2H70.5z"/>
						<path class="st6" d="M60.3,500.2c0,0,30.8-69.4,75.8-82c0,0,219.6-11,274.9-24.2s-157.8-53.3-239.9-50.4
							c-82,2.9-23.9,14.6,19.3,12.4c0,0-44.5-1.3-48.3-6.6c-3.8-5.3,119.5-6.5,212.8,17.7S129,418,129,418s-37.9,45.4-77.3,82.2
							H60.3z"/>
						<path class="st6" d="M189.7,500.2c0,0,74.3-70.9,155.6-79.3L500,400.5v6.7c0,0-76.9,6.1-133.3,13.7
							c-56.5,7.6-134.1,79.4-134.1,79.4h-42.9V500.2z"/>
						<path class="st6" d="M283.7,328.6c0,0,106.8,29.7,216.3,30.1v-5.6c0,0-83.7,4.1-192.1-24.7L283.7,328.6z"/>
					</g>
					<g class="st7">
						<path class="st8" d="M70.5,500.2c0,0,59.6-81,111.2-81.5c0,0,185.4-5.5,252.1-18.2c66.8-12.7-14.7-25.7-14.7-25.7
							s30.3,9.1,28.3,17.7c-4,16.9-279.7,25.9-279.7,25.9S127.8,456.2,70.5,500.2z"/>
						<path class="st8" d="M209.6,410.1c0,0,74.8-5.4,124.6-14.6c49.8-9.3,37.2-20.7,37.2-20.7s3.7,8.6-51.2,20.3
							S209.6,410.1,209.6,410.1z"/>
						<path class="st8" d="M0,372.3v4.2c0,0,89.5,4,125.2-2.1C125.2,374.4,107.6,379.7,0,372.3z"/>
						<path class="st8" d="M83.3,340.5c0,0,153.7-14.3,270.8,5.5C354.1,346,234.9,324.2,83.3,340.5z"/>
					</g>
					<g class="st9">
						<path class="st10" d="M0,407.5c14.4-15.1,123.4-20.7,182.9-35.9c59.5-15.2,11-20.1,11-20.1s137.9,5.9,158,23.2
							c20.1,17.3-247.4,42.8-247.4,42.8S45.3,454.9,26,450.8C6.7,446.6,0,415,0,415V407.5z"/>
						<path class="st10" d="M261.4,500.2c0,0,48-70.2,133.4-74.9c85.4-4.7,105.2,5.1,105.2,5.1v69.9H261.4V500.2z"/>
						<path class="st10" d="M311.7,328.3c0,0,101.8,23.5,188.3,19.7v-21.2L311.7,328.3z"/>
					</g>
					<path class="st11" d="M0,407.5c0,0,46.5,6.9,263.6,10S500,415,500,415v5.3c0,0-404.3,1.7-500-5.3V407.5z"/>
					<path class="st12" d="M0,500.2c0,0,63.4-72.6,206.4-76.2s293.6,6.4,293.6,6.4v69.9L0,500.2L0,500.2z"/>
				</g>
				<path class="st6" d="M34.8,401.3c0,0,270.1,2.7,444.3-4.8l-149.9-45l-211.2-8L34.8,401.3z"/>
				<g>
					
						<linearGradient id="SVGID_6_" gradientUnits="userSpaceOnUse" x1="42.1" y1="127.2965" x2="455.8" y2="127.2965" gradientTransform="matrix(1 0 0 -1 0 500.3465)">
						<stop  offset="0" style="stop-color:#FFFFFF"/>
						<stop  offset="0.4142" style="stop-color:#FEFDFD"/>
						<stop  offset="0.6052" style="stop-color:#FCF6F5"/>
						<stop  offset="0.7505" style="stop-color:#F9EAE9"/>
						<stop  offset="0.8724" style="stop-color:#F4D9D6"/>
						<stop  offset="0.9788" style="stop-color:#EDC4BF"/>
						<stop  offset="0.9944" style="stop-color:#ECC0BB"/>
					</linearGradient>
					<path class="st13" d="M42.1,400.5c0,0,264.6-3.4,413.7-10.3l-86.6-41.7l-256.9-2.9L42.1,400.5z"/>
					<path class="st14" d="M455.7,390.2v3c0,0-282.6,3.8-413.7,9.9v-2.6L455.7,390.2z"/>
				</g>
				<g>
					
						<linearGradient id="SVGID_7_" gradientUnits="userSpaceOnUse" x1="34.5" y1="133.7231" x2="463" y2="133.7231" gradientTransform="matrix(1 0 0 -1 0 500.3465)">
						<stop  offset="0" style="stop-color:#FFFFFF"/>
						<stop  offset="0.4142" style="stop-color:#FEFDFD"/>
						<stop  offset="0.6052" style="stop-color:#FCF6F5"/>
						<stop  offset="0.7505" style="stop-color:#F9EAE9"/>
						<stop  offset="0.8724" style="stop-color:#F4D9D6"/>
						<stop  offset="0.9788" style="stop-color:#EDC4BF"/>
						<stop  offset="0.9944" style="stop-color:#ECC0BB"/>
					</linearGradient>
					<path class="st15" d="M34.5,396c0,0,287.2,13.8,428.5-38.5l-84.4-21.9c0,0-148.1,9.4-268.9,2.4L34.5,396z"/>
					<path class="st14" d="M463,357.5v2.9c0,0-88,41.5-428.5,39V396C34.5,396,309.8,410.1,463,357.5z"/>
				</g>
				<g>
					<g>
						<polygon class="st16" points="208.9,114 304.8,114.8 298.4,261.4 216.4,261.8 						"/>
						<polygon class="st17" points="202,107 298.7,107.9 293,256.2 210.5,256.6 						"/>
						<polygon class="st18" points="225.4,138.4 276,138.6 274.8,230.3 229.3,230.5 						"/>
						<polygon class="st16" points="298.7,107.9 301.9,110 293.9,256.1 293,256.2 						"/>
						<polygon class="st16" points="227.5,138.4 229.3,230.5 228.5,230.2 225.4,138.4 						"/>
					</g>
					<g>
						<polygon class="st16" points="324.7,52.9 471.3,54.2 433.7,319.1 320.3,319.7 						"/>
						<polygon class="st17" points="315.2,42.2 463.1,43.7 426.8,312.2 312.5,312.8 						"/>
						<polygon class="st18" points="335.4,65.6 440.5,65.9 413.5,296.6 330,296.9 						"/>
						<polygon class="st16" points="463.1,43.7 467.6,47 428.1,312 426.8,312.2 						"/>
						<polygon class="st16" points="339.6,65.6 330,296.9 328.7,296.3 335.4,65.6 						"/>
					</g>
					<polygon class="st16" points="214.8,99.5 210.6,-2.4 306.7,-8 302.6,99.4 					"/>
					<polygon class="st19" points="212.2,97.3 207.8,-4.8 304,-10.4 300.1,97.2 					"/>
					<polygon class="st16" points="143.8,299.5 132,73.4 46,70.5 76.8,302.1 					"/>
					<polygon class="st19" points="141,295.5 128.5,61.5 42.1,61.5 73.9,298.1 					"/>
					<path class="st20" d="M204.3,110.6c-7,1.1,45.5,23.4,68.5,24.4c23,0.9,24.1-22.1,24.1-22.1S239,105.3,204.3,110.6z"/>
					<path class="st21" d="M343.3,279.7c-9.2-12.7-8.1-197.7,6.9-204.9s69.9-6.4,80.5,10.7s-21,197.1-32.1,202.4
						S343.3,279.7,343.3,279.7z"/>
					<path class="st21" d="M234.9,144.9c-5.7,1.3,0.2,71.7,4.1,76.3c3.9,4.6,28.5,2.8,31.1-1.2s2.7-68.9,0-72.8
						C267.3,143.2,237.8,144.2,234.9,144.9z"/>
					<path class="st22" d="M52.5,74.8c-9.2,2.3,20.8,199.4,25.4,207.9c4.5,8.5,54.9-44.8,52.9-115.2
						C128.7,97.2,119.2,58.1,52.5,74.8z"/>
					<path class="st22" d="M218.7,4.8c-5.9,3.8-3.3,75.5,0.5,81.3s70.2-0.5,77.7-31.3c7.4-30.8-3.4-58.8-8.5-61.4
						C283.4-9.2,230.1-2.6,218.7,4.8z"/>
				</g>
				<path class="st23" d="M0,184.9c0,0,152.6-68.4,313.6-55.6S500,228.4,500,228.4V0H0V184.9z"/>
				<path class="st24" d="M444.4,384.7c0,0-126.8,6.4-162,9.4s-79.4,2.5-79.4,2.5s131.6-4.2,217.3-23.9L444.4,384.7z"/>
				<path class="st25" d="M95,478.6l1.5,21.6h187.2v-80l53.6-25.1c0,0-90.8,16.5-147.6,38.7C132.9,456.1,95,478.6,95,478.6z"/>
				<g>
					
						<linearGradient id="SVGID_8_" gradientUnits="userSpaceOnUse" x1="173.25" y1="18.2215" x2="173.25" y2="104.9216" gradientTransform="matrix(1 0 0 -1 0 500.3465)">
						<stop  offset="0" style="stop-color:#BFBFFF"/>
						<stop  offset="6.189126e-02" style="stop-color:#C8C6FB"/>
						<stop  offset="0.2389" style="stop-color:#DED6F3"/>
						<stop  offset="0.4347" style="stop-color:#EDE2ED"/>
						<stop  offset="0.6619" style="stop-color:#F6E9EA"/>
						<stop  offset="0.9944" style="stop-color:#F9EBE9"/>
					</linearGradient>
					<path class="st26" d="M12.3,472.6c0,0,62.2-58.6,136.2-73.3l185.7-4c0,0-68.9,11.3-123.1,86.7L12.3,472.6z"/>
					<path class="st14" d="M334.3,395.4l3-0.3c0,0-69.2,8.9-126.2,89l-198.8-9.5v-2l198.8,9.5C211.1,482.1,253.2,414.5,334.3,395.4z
						"/>
					<path class="st27" d="M18.4,467.3c0,0,41.9-32.8,88.8-37.8c46.9-4.9,131.2,3.2,131.2,3.2s-21.7,41.1-29.5,44.1
						C201.1,480,45.3,473.2,18.4,467.3z"/>
					<path class="st24" d="M143.5,400.5c0,0,87.9,1.8,121.8,0.8c33.8-0.9,69-5.9,69-5.9l-185.7,4L143.5,400.5z"/>
					<g class="st28">
						
							<linearGradient id="SVGID_9_" gradientUnits="userSpaceOnUse" x1="67.7212" y1="69.9217" x2="283.2412" y2="69.9217" gradientTransform="matrix(1 0 0 -1 0 500.3465)">
							<stop  offset="1.489300e-02" style="stop-color:#482740"/>
							<stop  offset="0.242" style="stop-color:#775969"/>
							<stop  offset="0.4837" style="stop-color:#A2878F"/>
							<stop  offset="0.6986" style="stop-color:#C2A9AB"/>
							<stop  offset="0.8762" style="stop-color:#D5BEBC"/>
							<stop  offset="0.9944" style="stop-color:#DCC5C2"/>
						</linearGradient>
						<path class="st29" d="M84.2,456.9c-2.4-0.7-4.7-1.4-7-2.4c-0.6-0.2-1.2-0.5-1.7-0.8c-0.6-0.3-1.1-0.6-1.7-0.9
							c-1.1-0.6-2.2-1.4-3.2-2.3s-1.9-2-2.4-3.5c-0.6-1.4-0.6-3-0.2-4.4s1.1-2.6,1.9-3.7s1.7-2,2.7-2.8c3.8-3.4,8.2-5.7,12.6-7.8
							c4.4-2.1,8.9-3.9,13.5-5.5c9.2-3.2,18.6-5.6,28-7.6c9.5-2,19.1-3.4,28.7-4.4c9.6-0.9,19.3-1.3,29-1c2.4,0.1,4.8,0.2,7.4,0.7
							c0.6,0.1,1.3,0.3,2,0.7l0.3,0.2c0.1,0.1,0.2,0.2,0.3,0.3c0.2,0.3,0.4,0.7,0.4,1.1s-0.2,0.7-0.4,0.9c-0.2,0.2-0.3,0.4-0.5,0.5
							c-1.2,1-2.3,1.4-3.4,1.9c-4.6,1.8-9.2,3.1-13.9,4.5c-18.6,5.2-37.3,9.7-55.7,15.5c-4.6,1.5-9.1,3-13.5,4.9
							c-2.2,0.9-4.4,2-6.3,3.2c-1,0.6-1.9,1.3-2.7,2.2c-0.4,0.4-0.8,0.9-1.2,1.3c-0.4,0.4-0.7,0.9-0.8,1.3c0,0.1,0,0.2,0,0.1l0,0
							l0,0c0,0,0.3,0.1,0.5,0.1c0.5,0,1.1-0.1,1.6-0.2c1.1-0.2,2.3-0.5,3.4-0.8c2.3-0.7,4.6-1.4,6.8-2.2c4.5-1.6,9.1-3.2,13.6-4.9
							c18.1-6.7,36.3-13.1,54.9-18.3c4.6-1.3,9.3-2.5,14-3.6s9.4-2,14.2-2.6c4.8-0.5,9.7-0.9,14.5,0.4c2.3,0.6,4.6,2.1,5.9,4.2
							c0.7,1,1.2,2.2,1.7,3.2c0.5,1.1,1.1,2.1,2.2,2.7c1,0.5,2.3,0.5,3.4,0.4c1.2-0.2,2.4-0.4,3.5-0.8l1.7-0.5l1.7-0.6l1.7-0.6
							l1.7-0.7c4.4-1.9,8.8-4,13-6.2c8.6-4.4,16.9-9.2,25.2-14.2c-8.2,5-16.6,9.9-25.1,14.3c-4.3,2.2-8.6,4.4-13,6.3l-1.7,0.7
							l-1.7,0.6l-1.7,0.6l-1.7,0.5c-1.1,0.4-2.3,0.6-3.5,0.8c-1.2,0.2-2.5,0.2-3.6-0.4c-1.2-0.6-1.8-1.8-2.3-2.8
							c-0.5-1.1-1-2.2-1.7-3.2c-1.3-2-3.4-3.3-5.7-3.9c-4.6-1.2-9.5-0.9-14.3-0.3s-9.5,1.6-14.2,2.7s-9.3,2.4-14,3.7
							c-18.5,5.3-36.6,11.9-54.7,18.7c-4.5,1.7-9,3.4-13.6,5c-2.3,0.8-4.6,1.6-6.9,2.3c-1.2,0.3-2.3,0.7-3.6,0.9
							c-0.6,0.1-1.2,0.2-1.9,0.2c-0.3,0-0.7,0-1.2-0.4c-0.2-0.1-0.5-0.5-0.5-0.8c0-0.2,0-0.3,0-0.4s0-0.3,0.1-0.3
							c0.3-0.8,0.7-1.3,1.1-1.8s0.8-1,1.2-1.4c0.8-0.9,1.9-1.7,2.9-2.4c2.1-1.3,4.3-2.4,6.5-3.4c4.5-1.9,9-3.5,13.6-5.1
							c18.4-6,37.1-10.6,55.6-15.9c4.6-1.4,9.2-2.7,13.6-4.5c1.1-0.4,2.2-1,2.9-1.6c0.2-0.1,0.2-0.3,0.1-0.1c0,0.1,0.1,0.3,0.1,0.3
							l0,0c0,0-0.1,0-0.1-0.1c-0.3-0.2-0.9-0.3-1.4-0.4c-2.2-0.4-4.6-0.5-7-0.6c-9.6-0.2-19.2,0.2-28.7,1.2s-19,2.5-28.4,4.5
							s-18.7,4.5-27.7,7.7c-4.5,1.6-8.9,3.4-13.2,5.4c-4.2,2.1-8.4,4.4-11.9,7.5c-0.9,0.8-1.6,1.6-2.3,2.4c-0.7,0.9-1.2,1.8-1.4,2.7
							c-0.2,0.9-0.2,1.8,0.1,2.7c0.3,0.9,1,1.6,1.7,2.4c1.5,1.4,3.6,2.5,5.8,3.4c2.1,0.9,4.4,1.6,6.7,2.2l0,0c0.8,0.2,1.3,1,1.1,1.8
							C85.9,456.7,85,457.1,84.2,456.9L84.2,456.9z"/>
					</g>
				</g>
			</g>
		</g>
	</g>
</g>
<g id="Layer_3">
</g>
<g id="objects">
	<g>
		<g class="st28">
			<path class="st30" d="M166,364.6c0.2,0.2,0.3,0.5,0.4,0.8c0,0.4-0.1,0.8-0.3,1.1c-0.5,0.6-0.9,0.7-1.2,0.9
				c-0.7,0.3-1.2,0.3-1.6,0.4c-1,0.2-1.8,0.3-2.7,0.3c-1.7,0.2-3.4,0.2-5.1,0.3c-3.4,0.1-6.7,0.2-10,0.3c-6.6,0.2-13.3,0.4-19.8,0.8
				c-6.6,0.4-13.1,0.9-19.6,1.9c-3.2,0.5-6.4,1-9.4,1.8c-0.8,0.2-1.5,0.4-2.3,0.6l-1.1,0.3c-0.1,0-0.3,0.1-0.3,0.1s0.1,0,0.3-0.3
				c0.1-0.1,0.3-0.5,0.2-0.9c-0.2-0.4-0.4-0.5-0.5-0.6c-0.2-0.1-0.3-0.1-0.3-0.1h0.1c0.1,0,0.3,0,0.5,0.1c0.3,0,0.7,0.1,1.1,0.1
				c0.8,0,1.6,0.1,2.4,0.1c6.5,0,13.2-0.2,19.8-0.4l19.9-0.8l39.8-1.6c26.6-1,53.2-1.9,79.8-2.3c6.7-0.1,13.3-0.2,20-0.2h10
				c3.3,0,6.6,0,10,0.1c0.2,0,0.4,0,0.7,0h0.2c0.1,0,0.1,0,0.4,0.1c1.5,0.9-0.8,2.1-0.2,1.6c-0.1,0-0.2,0-0.2,0
				c-0.5,0.1-0.9,0.1-1.3,0.1l-2.5,0.2l-5,0.3l-10,0.5l-19.9,1c-13.3,0.7-26.5,1.5-39.7,2.7c-6.6,0.6-13.2,1.2-19.7,2.2
				c-3.2,0.5-6.5,1-9.5,1.9c-0.7,0.2-1.5,0.5-2.1,0.8c-0.3,0.2-0.6,0.3-0.7,0.5c-0.1,0.1-0.1,0.1-0.1,0.1c0-0.1,0-0.1,0,0
				c0.2,0.1,0.5,0.2,0.9,0.3c0.4,0.1,0.7,0.1,1.1,0.2c0.8,0.1,1.6,0.1,2.4,0.1c3.3,0.1,6.6,0,9.9-0.2c3.3-0.1,6.6-0.3,9.9-0.6
				c6.6-0.4,13.2-1,19.8-1.5c13.2-1.1,26.4-2.3,39.6-3.5c26.4-2.4,52.8-4.8,79.3-6.9c13.2-1,26.5-1.9,39.7-2.6
				c13.3-0.7,26.6-1.2,39.9-1c-13.3-0.1-26.6,0.5-39.8,1.2c-13.3,0.8-26.5,1.8-39.7,2.8c-26.4,2.2-52.8,4.7-79.2,7.2
				c-13.2,1.3-26.4,2.5-39.6,3.7c-6.6,0.6-13.2,1.1-19.8,1.6c-3.3,0.2-6.6,0.4-10,0.6c-3.3,0.2-6.7,0.3-10,0.2
				c-0.8,0-1.7-0.1-2.6-0.1c-0.4,0-0.9-0.1-1.3-0.2c-0.4-0.1-0.9-0.2-1.4-0.4c-0.2-0.1-0.6-0.4-0.6-0.8s0.1-0.6,0.3-0.8
				c0.3-0.4,0.7-0.6,1.1-0.8c0.8-0.4,1.6-0.7,2.3-0.9c3.2-1,6.5-1.5,9.7-2c6.6-1,13.2-1.7,19.8-2.3c13.2-1.2,26.5-2.1,39.7-2.9
				l19.9-1.1l9.9-0.5l5-0.3l2.5-0.2c0.4,0,0.8-0.1,1.1-0.1h0.1c0.7-0.5-1.5,0.6-0.1,1.5c0.2,0.1,0.1,0,0.1,0h-0.1h-0.6
				c-6.6-0.1-13.3,0-19.9,0.1s-13.3,0.1-19.9,0.3c-26.6,0.5-53.1,1.5-79.7,2.7l-39.8,1.8l-19.9,0.9c-6.7,0.2-13.3,0.5-20,0.5
				c-0.8,0-1.7,0-2.6-0.1c-0.4,0-0.9,0-1.4-0.1c-0.2,0-0.5-0.1-0.8-0.1c-0.1,0-0.3-0.1-0.5-0.1c-0.2-0.1-0.4-0.1-0.8-0.3
				c-0.2-0.1-0.5-0.3-0.7-0.8s0-0.9,0.2-1.1c0.4-0.4,0.6-0.5,0.8-0.6c0.3-0.2,0.6-0.3,0.8-0.3c0.5-0.2,0.8-0.2,1.2-0.4
				c0.8-0.2,1.6-0.4,2.4-0.6c3.2-0.8,6.5-1.4,9.9-1.9c6.6-1,13.3-1.6,20-2c6.7-0.4,13.3-0.7,20-0.9c3.3-0.1,6.6-0.2,9.9-0.4
				c1.6-0.1,3.3-0.2,4.8-0.3c0.8-0.1,1.6-0.2,2.2-0.3c0.3-0.1,0.6-0.1,0.7-0.2c0,0-0.1,0-0.3,0.3c-0.1,0.2-0.2,0.4-0.2,0.6
				s0.1,0.3,0.2,0.4c-0.6-0.7-0.2-1.6,0.7-2C164.2,363.7,165.5,363.9,166,364.6z"/>
		</g>
		
			<radialGradient id="SVGID_10_" cx="345.9" cy="557.2133" r="47.0531" gradientTransform="matrix(1 0 0 -0.3586 0 565.0875)" gradientUnits="userSpaceOnUse">
			<stop  offset="5.586590e-03" style="stop-color:#7C6881"/>
			<stop  offset="0.1493" style="stop-color:#9C8DA0"/>
			<stop  offset="0.3346" style="stop-color:#BFB6C2"/>
			<stop  offset="0.5163" style="stop-color:#DBD6DC"/>
			<stop  offset="0.6911" style="stop-color:#EFECF0"/>
			<stop  offset="0.8557" style="stop-color:#FBFAFB"/>
			<stop  offset="1" style="stop-color:#FFFFFF"/>
		</radialGradient>
		<path class="st31" d="M304.9,367.3c0,0,47.5-9.2,82-5.5C386.9,361.7,366.9,374.8,304.9,367.3z"/>
		
			<radialGradient id="SVGID_11_" cx="184.6922" cy="1427.3114" r="51.762" gradientTransform="matrix(0.9962 -1.314318e-02 -1.595836e-02 -0.1565 -0.1188 587.4299)" gradientUnits="userSpaceOnUse">
			<stop  offset="5.586590e-03" style="stop-color:#7C6881"/>
			<stop  offset="0.1493" style="stop-color:#9C8DA0"/>
			<stop  offset="0.3346" style="stop-color:#BFB6C2"/>
			<stop  offset="0.5163" style="stop-color:#DBD6DC"/>
			<stop  offset="0.6911" style="stop-color:#EFECF0"/>
			<stop  offset="0.8557" style="stop-color:#FBFAFB"/>
			<stop  offset="1" style="stop-color:#FFFFFF"/>
		</radialGradient>
		<path class="st32" d="M115.9,363.3c0,0,46.4-12.1,85.3-3.2C201.1,360.1,176.6,374.3,115.9,363.3z"/>
		<g class="st33">
			<path d="M160.5,369.4v-10.2h6.1v1.6c1.6-0.7,3-1.2,4.3-1.4c1.3-0.2,2.8-0.3,4.3-0.3c2.3,0,4.6,0.2,7,0.6l-2.3,1.6
				c-1.7-0.2-3.3-0.4-5-0.4c-1.5,0-2.8,0.1-4,0.3c-1.2,0.2-2,0.5-2.5,1c-0.8,0.6-1.1,1.3-1.1,2v5.4H160.5z"/>
			<path d="M213.6,366.1l7,0.2c-1.1,1-3.1,1.9-6.1,2.4c-3,0.6-6.8,0.9-11.4,0.9c-5.8,0-10.5-0.5-13.9-1.4s-5.1-2.2-5.1-3.9
				c0-1.7,1.7-3.1,5.2-4c3.5-1,8-1.4,13.5-1.4c5.3,0,9.7,0.5,13.1,1.4c3.4,0.9,5.1,2.2,5.1,3.9c0,0.1,0,0.3,0,0.5H191
				c0.2,1.1,1.5,2,3.7,2.6s5,0.9,8.4,0.9c2.5,0,4.6-0.2,6.4-0.5C211.2,367.3,212.6,366.8,213.6,366.1z M191.4,363.3h22.3
				c-0.3-0.9-1.2-1.5-2.6-1.9c-2.2-0.7-5-1-8.4-1c-3.1,0-5.7,0.3-7.8,0.8C192.8,361.7,191.6,362.4,191.4,363.3z"/>
			<path d="M227.9,370.2l6.6,0.3c0.3,0.5,1,0.9,2.3,1.1c1.7,0.3,4,0.5,6.9,0.5c3.1,0,5.6-0.2,7.3-0.5s2.9-0.8,3.5-1.3
				c0.4-0.4,0.5-1.1,0.5-2.2c-3,0.9-6.6,1.3-11.1,1.3c-5.5,0-9.7-0.5-12.8-1.5c-3-1-4.5-2.2-4.5-3.7c0-1,0.7-1.9,2.1-2.7
				c1.4-0.8,3.4-1.5,6-1.9s5.7-0.7,9.2-0.7c4.7,0,8.6,0.5,11.7,1.5v-1.2h6.2v8.9c0,1.6-0.6,2.7-1.9,3.4c-1.3,0.7-3.3,1.2-6,1.6
				c-2.7,0.4-6.1,0.6-10.1,0.6c-4.8,0-8.6-0.3-11.6-0.8C229.2,372.2,227.8,371.3,227.9,370.2z M233.5,364.1c0,1.3,1,2.3,3.1,2.9
				c2.1,0.6,4.7,0.9,7.8,0.9c3.1,0,5.7-0.3,7.8-0.9c2.1-0.6,3.2-1.6,3.2-2.9c0-1.3-1.1-2.2-3.3-2.8c-2.2-0.6-4.8-1-7.8-1
				c-3,0-5.6,0.3-7.7,0.9S233.5,362.8,233.5,364.1z"/>
			<path d="M272,357.2v-2h6.8v2H272z M272,369.4v-10.2h6.8v10.2H272z"/>
			<path d="M310,358c0-0.5,0.3-1,0.9-1.3c0.6-0.4,1.4-0.7,2.5-0.9c1.1-0.3,2.4-0.4,3.9-0.6c1.5-0.1,3.2-0.2,5-0.2
				c1.4,0,2.8,0,4.1,0.1s2.4,0.1,3.4,0.2c1.2,0.1,2.2,0.2,3.2,0.3v3.6h6.8v1.4h-6.8v6c0,0.5,0.1,0.8,0.3,1c0.2,0.1,0.6,0.3,1.2,0.3
				c0.5,0.1,1.3,0.1,2.3,0.1c0.4,0,0.8,0,1.3,0c0.5,0,1,0,1.7-0.1l1,1.5c-1.9,0.1-3.6,0.2-5.1,0.2c-2.5,0-4.4-0.1-5.7-0.3
				c-1.3-0.2-2.3-0.5-2.9-0.8c-0.6-0.3-0.8-1-0.8-2.1v-5.9h-5v-1.4h5v-2.7c-0.4,0-0.9,0-1.6-0.1s-1.5,0-2.4,0c-2.3,0-4,0.2-5.2,0.5
				c-1.2,0.3-1.7,0.8-1.7,1.5c0,0.3,0.1,0.6,0.2,0.9s0.3,0.5,0.6,0.8s0.5,0.5,0.8,0.7c0.3,0.2,0.5,0.4,0.8,0.6l-6.5,0.4
				c-0.2-0.2-0.5-0.4-1-0.5c-0.4-0.2-1-0.3-1.6-0.4c-0.7-0.1-1.5-0.2-2.4-0.3s-2.1-0.1-3.4-0.1c-1.1,0-2.1,0-3.1,0.1
				c-1,0-2,0.1-2.8,0.2s-1.5,0.2-2,0.4c-0.5,0.2-0.8,0.4-0.8,0.7c0,0.3,0.3,0.5,1,0.7c0.7,0.2,1.5,0.3,2.4,0.4c0.4,0,1,0.1,2,0.2
				s2.3,0.2,4,0.3c4.8,0.3,8.2,0.6,10,0.8c1.9,0.2,3.4,0.5,4.5,0.9c1.1,0.4,1.6,0.9,1.6,1.5c0,0.6-0.7,1.1-2,1.6
				c-1.3,0.5-3.2,0.9-5.7,1.2c-2.5,0.3-5.3,0.4-8.4,0.4c-5.2,0-9.1-0.3-11.9-0.8s-4.5-1.4-5.2-2.5l6.7-0.3c0.4,0.7,1.4,1.2,3.1,1.6
				s4.1,0.5,7.2,0.5c3.1,0,5.4-0.2,6.9-0.5c1.5-0.3,2.3-0.7,2.3-1.1c0-0.4-0.7-0.7-2-0.9c-0.9-0.1-3.2-0.3-6.9-0.6
				c-4.9-0.3-8.4-0.6-10.3-0.8c-1.9-0.2-3.4-0.6-4.3-1c-1-0.4-1.5-0.9-1.5-1.4c0-0.5,0.4-0.9,1.2-1.3s1.9-0.7,3.3-0.9
				s2.9-0.4,4.7-0.5s3.6-0.2,5.5-0.2c1.5,0,3,0,4.4,0.1s2.8,0.2,4.1,0.3c-0.2-0.2-0.4-0.4-0.5-0.6C310.1,358.5,310,358.3,310,358z"
				/>
			<path d="M373.7,366.1l7,0.2c-1.1,1-3.1,1.9-6.1,2.4c-3,0.6-6.8,0.9-11.4,0.9c-5.8,0-10.5-0.5-13.9-1.4s-5.1-2.2-5.1-3.9
				c0-1.7,1.7-3.1,5.2-4c3.5-1,8-1.4,13.5-1.4c5.3,0,9.7,0.5,13.1,1.4c3.4,0.9,5.1,2.2,5.1,3.9c0,0.1,0,0.3,0,0.5h-29.8
				c0.2,1.1,1.5,2,3.7,2.6s5,0.9,8.4,0.9c2.5,0,4.6-0.2,6.4-0.5C371.3,367.3,372.7,366.8,373.7,366.1z M351.5,363.3h22.3
				c-0.3-0.9-1.2-1.5-2.6-1.9c-2.2-0.7-5-1-8.4-1c-3.1,0-5.7,0.3-7.8,0.8C352.9,361.7,351.7,362.4,351.5,363.3z"/>
			<path d="M389.1,369.4v-10.2h6.1v1.6c1.6-0.7,3-1.2,4.3-1.4c1.3-0.2,2.8-0.3,4.3-0.3c2.3,0,4.6,0.2,7,0.6l-2.3,1.6
				c-1.7-0.2-3.3-0.4-5-0.4c-1.5,0-2.8,0.1-4,0.3c-1.2,0.2-2,0.5-2.5,1c-0.8,0.6-1.1,1.3-1.1,2v5.4H389.1z"/>
		</g>
		<g>
			
				<linearGradient id="SVGID_12_" gradientUnits="userSpaceOnUse" x1="118.1128" y1="207.2405" x2="118.1128" y2="215.7815" gradientTransform="matrix(0.9964 -8.440000e-02 -8.440000e-02 -0.9964 2.875 530.9491)">
				<stop  offset="0" style="stop-color:#FFB000"/>
				<stop  offset="1" style="stop-color:#FFC931"/>
			</linearGradient>
			<path class="st34" d="M90.2,307.2c3.5-2.1,25,5.8,25,5.8S101.4,317.3,90.2,307.2z"/>
			
				<linearGradient id="SVGID_13_" gradientUnits="userSpaceOnUse" x1="131.8816" y1="207.024" x2="131.8816" y2="233.5739" gradientTransform="matrix(0.9964 -8.440000e-02 -8.440000e-02 -0.9964 2.875 530.9491)">
				<stop  offset="0" style="stop-color:#E06600"/>
				<stop  offset="1" style="stop-color:#D84000"/>
			</linearGradient>
			<path class="st35" d="M102.8,314.2c0,0,4,0.8,11.4-0.9c7.5-1.7,15.4-14.8,15.4-14.8l-3.4-12.4c0,0-7.9,17.7-13.9,23
				C106.2,314.5,102.8,314.2,102.8,314.2z"/>
			
				<linearGradient id="SVGID_14_" gradientUnits="userSpaceOnUse" x1="124.7149" y1="207.4589" x2="124.7149" y2="240.1076" gradientTransform="matrix(0.9964 -8.440000e-02 -8.440000e-02 -0.9964 2.875 530.9491)">
				<stop  offset="0" style="stop-color:#FFB000"/>
				<stop  offset="1" style="stop-color:#FF8D14"/>
			</linearGradient>
			<path class="st36" d="M124.3,279.7c0,0-3.1,20-10.7,28.2s-18.9,3.3-22.4-0.2c-3.4-3.5,1.7,7.8,14.2,6.3s20.8-27.9,20.8-27.9
				L124.3,279.7z"/>
			<path class="st37" d="M118.9,311c0,0-0.1-7.3,2.9-14.1c3-6.8,4.6-8.2,4.6-8.2s2.2,5.8,2.3,9C128.7,300.9,121.9,308.7,118.9,311z"
				/>
			
				<linearGradient id="SVGID_15_" gradientUnits="userSpaceOnUse" x1="215.2849" y1="229.0725" x2="215.2849" y2="268.9438" gradientTransform="matrix(0.9964 -8.440000e-02 -8.440000e-02 -0.9964 2.875 530.9491)">
				<stop  offset="0" style="stop-color:#D84000"/>
				<stop  offset="1" style="stop-color:#E06600"/>
			</linearGradient>
			<path class="st38" d="M208.1,244.2c4.4-5.3,3.7,28.5-2.5,38.3c-1.3,2.1-19.3,4.9-23.8-4.5l-0.2-2.8c0,0,3.3,6.4,5.5,5.4
				c2.8-1.3,13.4-22.6,19-33.4C207.7,244.1,208.1,244.2,208.1,244.2z"/>
			
				<linearGradient id="SVGID_16_" gradientUnits="userSpaceOnUse" x1="214.1359" y1="232.2328" x2="214.1359" y2="268.4727" gradientTransform="matrix(0.9964 -8.440000e-02 -8.440000e-02 -0.9964 2.875 530.9491)">
				<stop  offset="0" style="stop-color:#FFB000"/>
				<stop  offset="1" style="stop-color:#FF8D14"/>
			</linearGradient>
			<path class="st39" d="M182.3,271.8c7.2,20.5,16.9-17.6,25.8-27.7c0,0-5.2,8.5-10.3,22.3c-5.1,13.8-8.5,17.8-12.5,14.9
				s-3.8-6.1-3.8-6.1L182.3,271.8z"/>
			<path class="st37" d="M188.6,282.5c3.5,0.1,13.1-11.8,16.5-12.3c3.4-0.6-0.3,12.3-0.3,12.3S197.1,287.3,188.6,282.5z"/>
			
				<linearGradient id="SVGID_17_" gradientUnits="userSpaceOnUse" x1="171.5997" y1="172.132" x2="171.5997" y2="401.8886" gradientTransform="matrix(0.9964 -8.440000e-02 -8.440000e-02 -0.9964 2.875 530.9491)">
				<stop  offset="0" style="stop-color:#FFC931"/>
				<stop  offset="0.3045" style="stop-color:#FFB000"/>
				<stop  offset="1" style="stop-color:#FF8D14"/>
			</linearGradient>
			<path class="st40" d="M191.8,148.8c-9.8,46.3-8.8,153.8-8.8,153.8l-2,7.9l-8.5,33.3c-8.7-3.4-20.8,1.8-20.8,1.8l-18.1-33l-3-5.5
				C114.2,243.4,95,165,95,165l0,0C133.6,66.4,190.1,146.4,191.8,148.8C191.7,148.7,191.7,148.7,191.8,148.8L191.8,148.8z"/>
			
				<linearGradient id="SVGID_18_" gradientUnits="userSpaceOnUse" x1="175.0206" y1="156.4009" x2="175.0206" y2="179.0335" gradientTransform="matrix(0.9964 -8.440000e-02 -8.440000e-02 -0.9964 2.875 530.9491)">
				<stop  offset="5.586999e-03" style="stop-color:#8B4036"/>
				<stop  offset="0.2195" style="stop-color:#843D37"/>
				<stop  offset="0.5405" style="stop-color:#6F363A"/>
				<stop  offset="0.9272" style="stop-color:#4E293F"/>
				<stop  offset="0.9851" style="stop-color:#482740"/>
			</linearGradient>
			<path class="st41" d="M152.8,343.7c0,0,6.2,15.5,10.5,16.6s9-19.1,9-19.1S162.7,331.8,152.8,343.7z"/>
			
				<radialGradient id="SVGID_19_" cx="164.2793" cy="348.9793" r="46.6276" gradientTransform="matrix(0.9964 -8.440000e-02 -8.440000e-02 -0.9964 2.875 530.9491)" gradientUnits="userSpaceOnUse">
				<stop  offset="3.351960e-02" style="stop-color:#FFE431"/>
				<stop  offset="0.338" style="stop-color:#FFD62E"/>
				<stop  offset="0.7346" style="stop-color:#EC7528"/>
				<stop  offset="0.9469" style="stop-color:#FDD63A"/>
				<stop  offset="1" style="stop-color:#FC7D25"/>
			</radialGradient>
			<path class="st42" d="M100.6,187.7c0,0,18.4-14.6,27-17.2c10-3.1,30.3-3.2,36.5-1.7c6.3,1.5,23.4,10.4,23.4,10.4l0.6-4.9
				c0,0-18.9-10.4-23.9-11.6c-8.2-1.9-29.6,1.3-37.8,3.2c-8.1,1.9-27.5,14.9-27.5,14.9L100.6,187.7z"/>
			
				<linearGradient id="SVGID_20_" gradientUnits="userSpaceOnUse" x1="172.419" y1="172.17" x2="172.419" y2="228.1943" gradientTransform="matrix(0.9964 -8.440000e-02 -8.440000e-02 -0.9964 2.875 530.9491)">
				<stop  offset="0" style="stop-color:#D86B74"/>
				<stop  offset="0.933" style="stop-color:#DD4B00"/>
			</linearGradient>
			<path class="st43" d="M183,302.6l-10.5,41.2c-3.1-5.2-7.2-3.9-11.1-0.8c-6-2.4-9.1,1.7-9.6,2.4l-0.1,0.1L130.5,307
				c0,0,0.5-3,3-4.5c2.4-1.5,6.7-1.7,14.3,3.4c0,0,10.9-36.4,21.2-3C169.1,302.8,180.5,288.2,183,302.6z"/>
			
				<linearGradient id="SVGID_21_" gradientUnits="userSpaceOnUse" x1="143.1015" y1="206.6427" x2="143.1015" y2="372.1651" gradientTransform="matrix(0.9964 -8.440000e-02 -8.440000e-02 -0.9964 2.875 530.9491)">
				<stop  offset="0" style="stop-color:#FFFFFF"/>
				<stop  offset="0.9944" style="stop-color:#F36881"/>
			</linearGradient>
			<path class="st44" d="M147.9,305.8l-14.3,6.7l-3-5.5C114.2,243.4,95,165,95,165l0,0c0.5-0.5,15.5-17.7,22.6-17.2
				C124.8,148.3,147.9,305.8,147.9,305.8z"/>
			
				<linearGradient id="SVGID_22_" gradientUnits="userSpaceOnUse" x1="202.7032" y1="204.6348" x2="202.7032" y2="376.323" gradientTransform="matrix(0.9964 -8.440000e-02 -8.440000e-02 -0.9964 2.875 530.9491)">
				<stop  offset="0" style="stop-color:#FFFFFF"/>
				<stop  offset="0.9944" style="stop-color:#F36881"/>
			</linearGradient>
			<path class="st45" d="M191.8,148.8c-9.8,46.3-8.8,153.8-8.8,153.8l-2,7.9l-11.9-7.7c0,0-6.9-159.9-2.5-163
				C170.8,136.7,190.6,148.1,191.8,148.8C191.7,148.7,191.7,148.7,191.8,148.8L191.8,148.8z"/>
			<path class="st46" d="M99.2,182.3c0,0,18.9-13.8,27.1-16.5c8.3-2.7,33.1-4.6,37.8-3.2c4.7,1.4,23.8,11.9,23.8,11.9l3.5-26.1
				c0,0-25.2-34.7-52-32.4c-26.8,2.4-44.4,49-44.4,49L99.2,182.3z"/>
			
				<linearGradient id="SVGID_23_" gradientUnits="userSpaceOnUse" x1="171.604" y1="356.9245" x2="171.604" y2="401.8956" gradientTransform="matrix(0.9964 -8.440000e-02 -8.440000e-02 -0.9964 2.875 530.9491)">
				<stop  offset="1.489300e-02" style="stop-color:#000000"/>
				<stop  offset="3.735015e-02" style="stop-color:#080400"/>
				<stop  offset="0.2461" style="stop-color:#502A01"/>
				<stop  offset="0.4426" style="stop-color:#8C4902"/>
				<stop  offset="0.6211" style="stop-color:#BB6203"/>
				<stop  offset="0.7782" style="stop-color:#DD7304"/>
				<stop  offset="0.9081" style="stop-color:#F27E04"/>
				<stop  offset="0.9944" style="stop-color:#F98204"/>
			</linearGradient>
			<path class="st47" d="M95,165c0,0,16.9-26.9,46.1-30.3c29.3-3.4,50.7,14,50.7,14s-20-35.4-52.3-32.6C109.9,118.6,95,165,95,165z"
				/>
			<path class="st48" d="M118.9,146.2c0,0,14.8,46,24.3,115.1c5.2,38.5,21.3,24.4,23.1,5.9c2.1-20.4-1.8-127.8-1.8-127.8
				S144.6,125.9,118.9,146.2z"/>
			<path class="st49" d="M183.4,295.1c0,0-11.4-14.1-12.9-55.1c-1.9-50.8,21.2-91.3,21.2-91.3s-10,64.6-10.9,105.9
				C180.3,279,183.4,295.1,183.4,295.1z"/>
			<path class="st50" d="M151.7,345.6l2.4,1.4c0,0,1.5-6.9,7.1-3.3c0,0,5.4-6.4,10.2,0.7l1-0.6c0,0-2.5-4.8-5.2-4.6
				c-2.7,0.1-5.9,3.8-5.9,3.8s-3.2-2-6.1-1.1C152.3,342.8,151.7,345.6,151.7,345.6z"/>
			<path class="st51" d="M130,120.1c-8.8,11.4,20.7,11.2,37.3,16.2s23.4,10.8,23.4,10.8S157.5,104.5,130,120.1z"/>
			<path class="st52" d="M161.3,123.3c0,0,5-0.6,9.2,6.5C170.6,129.8,162.7,128.2,161.3,123.3z"/>
			<path class="st53" d="M115.7,243.4c-10.8-33.1-7.9-86.9-1.2-89.3c6.7-2.4,23.1,88.9,25.1,118.4c1.9,29.5-7.7,26.9-7.7,26.9
				S125.8,274.3,115.7,243.4z"/>
			<path class="st54" d="M131.4,308.6c0,0,7.7-10.1,17.3-0.3c0,0,4.7-17.4,11.6-17.2c6.9,0.1,8.7,18.5,8.7,18.5s4.5-10.5,9.3-11.2
				c4.9-0.7,3.1,8.5,3.1,8.5l1.4-4.3c0,0-0.3-6.5-4.2-6.9c-3.8-0.5-9.7,7.6-9.7,7.6s-3.3-15.9-10.1-15.7
				c-6.8,0.2-11.2,18.3-11.2,18.3s-10.4-7.5-14.5-5.6s-2.9,6.8-2.9,6.8L131.4,308.6z"/>
			<path class="st37" d="M152.8,343.7l-1,1.7l-0.1,0.1L130.5,307c0,0,0.5-3,3-4.5c0.4,1.5,0.4,3.7,0.4,3.7
				C132.6,307.3,148,341.2,152.8,343.7z"/>
			<path class="st55" d="M158,338.1l-8.2-29.6c0,0,1.8-14.7,9.5-15.5s9.7,18.4,9.7,18.4s-2.7,25-5.7,28
				C160.4,342.5,158,338.1,158,338.1z"/>
			<path class="st53" d="M152.5,340.4c5.1-0.6,1.8-25.4-3.8-30.7c-5.7-5.2-10.4-4.7-10.4-4.7S141.9,329.3,152.5,340.4z"/>
			<path class="st37" d="M169.1,302.8v6.7c0,0-1.5-11.7-5.5-16.9c-3.9-5.1-5.3-5.1-5.3-5.1S165.4,285.9,169.1,302.8z"/>
			<path class="st56" d="M160.6,344.8c-0.1,2.1,2.1,14.2,3.7,14.7c1.6,0.5,5.9-10.6,6.2-13.9C170.7,342.2,166.9,339.8,160.6,344.8z"
				/>
			<path class="st57" d="M155.1,346.8c1.4-6.1,3.8-2,5.4,2.7c1.6,4.8,1.5,8.7,1.5,8.7S157.5,354.7,155.1,346.8z"/>
			
				<linearGradient id="SVGID_24_" gradientUnits="userSpaceOnUse" x1="200.6727" y1="245.1929" x2="200.6727" y2="258.9176" gradientTransform="matrix(0.9964 -8.440000e-02 -8.440000e-02 -0.9964 2.875 530.9491)">
				<stop  offset="0" style="stop-color:#FF8D14"/>
				<stop  offset="1" style="stop-color:#FFB000"/>
			</linearGradient>
			<path class="st58" d="M169.1,257c0,0,3.8,9.4,10.2,12.4s13.6-13.7,13.6-13.7s-2.4,2.9-9.2,4.1C176.7,261.2,169.1,257,169.1,257z"
				/>
			<path class="st52" d="M168.8,287.9c0,0-3.9-4.1-0.3-18.1L168.8,287.9z"/>
			<g>
				
					<linearGradient id="SVGID_25_" gradientUnits="userSpaceOnUse" x1="227.6078" y1="237.029" x2="227.6078" y2="269.5568" gradientTransform="matrix(1.3159 2.740000e-02 2.070000e-02 -0.9998 -124.6029 492.7908)">
					<stop  offset="8.379610e-03" style="stop-color:#FFB000"/>
					<stop  offset="0.4888" style="stop-color:#F97A00"/>
					<stop  offset="1" style="stop-color:#CE2A14"/>
				</linearGradient>
				<path class="st59" d="M173.4,260.8c-10.3-5.3-13.3-27.9,4.7-31c15.9-2.7,20.1,13.9,15.1,25.3
					C189.4,263.5,177.1,262.7,173.4,260.8z"/>
				
					<radialGradient id="SVGID_26_" cx="211.7036" cy="183.8439" r="11.1229" gradientTransform="matrix(1.1695 2.430000e-02 2.977633e-02 -1.4382 -73.1283 503.4556)" gradientUnits="userSpaceOnUse">
					<stop  offset="0" style="stop-color:#FFFFFF"/>
					<stop  offset="0.4142" style="stop-color:#FEFDFD"/>
					<stop  offset="0.6052" style="stop-color:#FCF6F5"/>
					<stop  offset="0.7505" style="stop-color:#F9EAE9"/>
					<stop  offset="0.8724" style="stop-color:#F4D9D6"/>
					<stop  offset="0.9788" style="stop-color:#EDC4BF"/>
					<stop  offset="0.9944" style="stop-color:#ECC0BB"/>
				</radialGradient>
				<path class="st60" d="M167.8,250.5c-2.3-11.1,4.3-21.3,16.5-18.9c12.5,2.4,12.9,22.8,2.7,27.8
					C177.8,263.9,169.1,256.6,167.8,250.5z"/>
				
					<linearGradient id="SVGID_27_" gradientUnits="userSpaceOnUse" x1="199.3709" y1="261.2607" x2="199.3709" y2="277.3065" gradientTransform="matrix(0.9964 -8.440000e-02 -8.440000e-02 -0.9964 2.875 530.9491)">
					<stop  offset="7.262570e-02" style="stop-color:#F4A400"/>
					<stop  offset="0.9609" style="stop-color:#9A3100"/>
				</linearGradient>
				<path class="st61" d="M186.8,245.1c0.4,4.4-2.9,8.3-7.3,8.7c-4.4,0.4-8.3-2.9-8.7-7.3c-0.4-4.4,2.9-8.3,7.3-8.7
					S186.4,240.7,186.8,245.1z"/>
				<path class="st62" d="M184.4,245.3c0.3,3.1-2,5.8-5.1,6.1s-5.9-2-6.1-5.2c0-0.3,0-0.6,0-1c0.2-2.7,2.4-4.9,5.2-5.2
					c2.8-0.2,5.4,1.7,6,4.4C184.3,244.8,184.4,245.1,184.4,245.3z"/>
				<path class="st62" d="M184.4,245.3c0.3,3.1-2,5.8-5.1,6.1s-5.9-2-6.1-5.2c0-0.3,0-0.6,0-1c0,0,0.3,6.3,6.3,5.5
					c5.4-0.7,5-5.4,4.8-6.3C184.3,244.8,184.4,245.1,184.4,245.3z"/>
				<path class="st51" d="M174.9,252.2c0.7-1.2,3.4,0,5.6-0.9c2.1-0.9,3.2,0.1,3.2,0.1S180.8,255.7,174.9,252.2z"/>
				<path class="st63" d="M188.6,248.4c0.1,1.3-0.8,2.4-2.1,2.5s-2.4-0.8-2.5-2.1s0.8-2.4,2.1-2.5
					C187.4,246.2,188.5,247.1,188.6,248.4z"/>
				<path class="st63" d="M177,243.6c0,0.5-0.3,0.8-0.7,0.9c-0.5,0-0.8-0.3-0.9-0.7c0-0.5,0.3-0.8,0.7-0.9
					C176.6,242.8,177,243.1,177,243.6z"/>
				<path class="st52" d="M172.1,259.8c0,0,4.7,1.8,10.2,1c5.4-0.8,8.7-3.3,8.7-3.3s-1.2,3.5-8.3,4.5
					C175.5,263,172.1,259.8,172.1,259.8z"/>
				
					<linearGradient id="SVGID_28_" gradientUnits="userSpaceOnUse" x1="203.2529" y1="268.8886" x2="203.2529" y2="284.9084" gradientTransform="matrix(0.9964 -8.440000e-02 -8.440000e-02 -0.9964 2.875 530.9491)">
					<stop  offset="0" style="stop-color:#5E1A1D"/>
					<stop  offset="0.3149" style="stop-color:#720F19"/>
					<stop  offset="0.7229" style="stop-color:#860415"/>
					<stop  offset="1" style="stop-color:#8D0013"/>
				</linearGradient>
				<path class="st64" d="M168.7,239.2c0,0,4-9.8,15.6-9.4c4.3,0.2,8.2,2.2,9.7,4.2c3.3,4.5,0.2,10.9,0.2,10.9s0-12.1-10.9-13.2
					C171.5,230.5,168.7,239.2,168.7,239.2z"/>
			</g>
			
				<linearGradient id="SVGID_29_" gradientUnits="userSpaceOnUse" x1="436.4403" y1="243.8737" x2="436.4403" y2="257.0639" gradientTransform="matrix(-0.9964 8.440000e-02 -8.440000e-02 -0.9964 581.3391 481.2428)">
				<stop  offset="0" style="stop-color:#FF8D14"/>
				<stop  offset="1" style="stop-color:#FFB000"/>
			</linearGradient>
			<path class="st65" d="M136.6,260.9c0,0-3.8,9.5-9.5,13.5c-5.8,4.1-14.1-10.8-14.1-10.8s2.8,2.4,9.8,2.5
				C129.7,266.3,136.6,260.9,136.6,260.9z"/>
			<g>
				
					<linearGradient id="SVGID_30_" gradientUnits="userSpaceOnUse" x1="406.8317" y1="260.7689" x2="406.8317" y2="293.2811" gradientTransform="matrix(-1.2925 0.2484 -0.1887 -0.9821 701.8368 422.6693)">
					<stop  offset="8.379610e-03" style="stop-color:#FFB000"/>
					<stop  offset="0.4888" style="stop-color:#F97A00"/>
					<stop  offset="1" style="stop-color:#CE2A14"/>
				</linearGradient>
				<path class="st66" d="M132.9,265.3c9.2-6.9,8.4-29.8-9.8-29.7c-16.1,0-17.5,17.1-10.6,27.5C117.6,270.7,129.6,267.8,132.9,265.3
					z"/>
				
					<radialGradient id="SVGID_31_" cx="412.6322" cy="195.7586" r="11.1223" gradientTransform="matrix(-1.1488 0.2208 -0.2714 -1.4127 650.8308 435.5212)" gradientUnits="userSpaceOnUse">
					<stop  offset="0" style="stop-color:#FFFFFF"/>
					<stop  offset="0.4142" style="stop-color:#FEFDFD"/>
					<stop  offset="0.6052" style="stop-color:#FCF6F5"/>
					<stop  offset="0.7505" style="stop-color:#F9EAE9"/>
					<stop  offset="0.8724" style="stop-color:#F4D9D6"/>
					<stop  offset="0.9788" style="stop-color:#EDC4BF"/>
					<stop  offset="0.9944" style="stop-color:#ECC0BB"/>
				</radialGradient>
				<path class="st67" d="M136.7,254.3c0.4-11.3-7.8-20.3-19.4-15.9c-11.9,4.5-8.9,24.7,2.1,27.9
					C129.1,269.1,136.5,260.5,136.7,254.3z"/>
				
					<linearGradient id="SVGID_32_" gradientUnits="userSpaceOnUse" x1="435.234" y1="259.4382" x2="435.234" y2="275.484" gradientTransform="matrix(-0.9964 8.440000e-02 -8.440000e-02 -0.9964 581.3391 481.2428)">
					<stop  offset="7.262570e-02" style="stop-color:#F4A400"/>
					<stop  offset="0.9609" style="stop-color:#9A3100"/>
				</linearGradient>
				<path class="st68" d="M117.1,252.2c0.4,4.4,4.3,7.7,8.7,7.3c4.4-0.4,7.7-4.3,7.3-8.7c-0.4-4.4-4.3-7.7-8.7-7.3
					S116.7,247.7,117.1,252.2z"/>
				<path class="st62" d="M119.5,252c0.3,3.1,3,5.4,6.1,5.2c3.1-0.3,5.4-3,5.2-6.1c0-0.3-0.1-0.6-0.2-0.9c-0.7-2.6-3.2-4.5-5.9-4.2
					c-2.8,0.2-5,2.5-5.1,5.3C119.5,251.4,119.5,251.7,119.5,252z"/>
				<path class="st62" d="M119.5,252c0.3,3.1,3,5.4,6.1,5.2c3.1-0.3,5.4-3,5.2-6.1c0-0.3-0.1-0.6-0.2-0.9c0,0,0.8,6.3-5.3,6.5
					c-5.5,0.2-5.8-4.5-5.8-5.4C119.5,251.4,119.5,251.7,119.5,252z"/>
				<path class="st51" d="M130,257.2c-0.9-1.1-3.4,0.5-5.7,0.1c-2.3-0.5-3.2,0.7-3.2,0.7S124.8,261.6,130,257.2z"/>
				<path class="st63" d="M115.9,255.7c0.1,1.3,1.2,2.2,2.5,2.1s2.2-1.2,2.1-2.5c-0.1-1.3-1.2-2.2-2.5-2.1
					C116.7,253.3,115.8,254.4,115.9,255.7z"/>
				<path class="st63" d="M126.4,249c0,0.5,0.4,0.8,0.9,0.7c0.5,0,0.8-0.4,0.7-0.9c0-0.5-0.4-0.8-0.9-0.7
					C126.7,248.2,126.4,248.6,126.4,249z"/>
				<path class="st52" d="M134,264.2c0,0-4.4,2.6-9.9,2.7c-5.5,0.2-9.1-1.8-9.1-1.8s1.8,3.3,9,3.1S134,264.2,134,264.2z"/>
				
					<linearGradient id="SVGID_33_" gradientUnits="userSpaceOnUse" x1="516.9059" y1="267.1852" x2="516.9059" y2="283.5205" gradientTransform="matrix(-0.9964 8.440000e-02 -8.440000e-02 -0.9964 658.8036 474.6777)">
					<stop  offset="0" style="stop-color:#5E1A1D"/>
					<stop  offset="0.3149" style="stop-color:#720F19"/>
					<stop  offset="0.7229" style="stop-color:#860415"/>
					<stop  offset="1" style="stop-color:#8D0013"/>
				</linearGradient>
				<path class="st69" d="M133.9,243.2c0,0-6-10.4-16.9-6.6c-4.2,1.4-8.6,3.5-9.5,6.5c-1.3,4.5,2.3,10.1,2.3,10.1s-2-12,8.5-14.9
					C129.7,235,133.9,243.2,133.9,243.2z"/>
			</g>
			
				<linearGradient id="SVGID_34_" gradientUnits="userSpaceOnUse" x1="173.3893" y1="252.7342" x2="173.3893" y2="258.1349" gradientTransform="matrix(0.9964 -8.440000e-02 -8.440000e-02 -0.9964 2.875 530.9491)">
				<stop  offset="0" style="stop-color:#F97A00"/>
				<stop  offset="1" style="stop-color:#CE2A14"/>
			</linearGradient>
			<path class="st70" d="M147.2,260c-0.7,0.5,3.3,4.8,7,4.5c4.6-0.4,6.8-5.7,6.4-5.9s-1.8,2.8-6.2,3.5
				C150.9,262.7,147.9,259.5,147.2,260z"/>
			<path class="st52" d="M148.6,262.9c0,0,4.4,4.2,7.1,3.2c2.8-0.9,4-4.2,4-4.2s-1.9,2-5.1,2.6C151.5,265,148.6,262.9,148.6,262.9z"
				/>
			
				<linearGradient id="SVGID_35_" gradientUnits="userSpaceOnUse" x1="198.5819" y1="294.7345" x2="198.5819" y2="301.9598" gradientTransform="matrix(0.9943 -0.1067 -0.1067 -0.9943 8.532 538.0059)">
				<stop  offset="0" style="stop-color:#5E1A1D"/>
				<stop  offset="0.3149" style="stop-color:#720F19"/>
				<stop  offset="0.7229" style="stop-color:#860415"/>
				<stop  offset="1" style="stop-color:#8D0013"/>
			</linearGradient>
			<path class="st71" d="M165.3,221.3c4.8-6.1,18.1,1.5,18.1,1.5s-6-6.2-11.2-6C166.1,217,165.3,221.3,165.3,221.3z"/>
			
				<linearGradient id="SVGID_36_" gradientUnits="userSpaceOnUse" x1="459.4639" y1="291.1052" x2="459.4639" y2="298.3305" gradientTransform="matrix(-0.9897 0.1432 -0.1432 -0.9897 617.4689 451.7477)">
				<stop  offset="0" style="stop-color:#5E1A1D"/>
				<stop  offset="0.3149" style="stop-color:#720F19"/>
				<stop  offset="0.7229" style="stop-color:#860415"/>
				<stop  offset="1" style="stop-color:#8D0013"/>
			</linearGradient>
			<path class="st72" d="M129.4,224.7c-6.1-4.7-17.2,6-17.2,6s4.3-7.5,9.4-8.6C127.6,220.8,129.4,224.7,129.4,224.7z"/>
			<path class="st73" d="M159.6,135.9c0,0,4.6,3.3,5.8,3.6s8.9-0.3,8.9-0.3S168,136.7,159.6,135.9z"/>
			<path class="st74" d="M144.3,163.2c0,0-0.3,3.7,6.8,4.4c7.2,0.6,12.4-5,12.4-5S156.1,161.4,144.3,163.2z"/>
		</g>
		<g>
			
				<linearGradient id="SVGID_37_" gradientUnits="userSpaceOnUse" x1="239.1904" y1="186.9116" x2="239.1904" y2="263.3321" gradientTransform="matrix(0.969 0.2473 0.2473 -0.969 20.0618 370.4669)">
				<stop  offset="0" style="stop-color:#C9001E"/>
				<stop  offset="0.4586" style="stop-color:#CB041B"/>
				<stop  offset="0.9631" style="stop-color:#D01214"/>
				<stop  offset="1" style="stop-color:#D11313"/>
			</linearGradient>
			<path class="st75" d="M305.5,250.4c0,0-9.4-4-5.8-34.2c2.4-20.6,7.9-32.7,11.1-38.3c1.5-2.6,2.5-3.8,2.5-3.8
				c3.5-3.2-0.2,14-3.2,31.1c-0.9,5.4-1.8,10.9-2.3,15.6C305.6,240.7,305.5,250.4,305.5,250.4z"/>
			
				<linearGradient id="SVGID_38_" gradientUnits="userSpaceOnUse" x1="237.7046" y1="178.4601" x2="237.7046" y2="262.8038" gradientTransform="matrix(0.969 0.2473 0.2473 -0.969 20.0618 370.4669)">
				<stop  offset="0" style="stop-color:#DD341E"/>
				<stop  offset="1" style="stop-color:#EF6F13"/>
			</linearGradient>
			<path class="st76" d="M301.1,258c-0.3-0.7-8.6-23.8-0.8-51.6c0.5-1.8,1-3.6,1.5-5.2c6.8-23.5,10-26.5,11.5-27.1
				c1.4-0.5-4.4,11.5-9,27.5c-1.1,4-2.2,8.3-3,12.6c-4.2,21.8,0.4,30.3,0.4,30.3L301.1,258z"/>
			
				<linearGradient id="SVGID_39_" gradientUnits="userSpaceOnUse" x1="263.2952" y1="96.2261" x2="263.2952" y2="248.3345" gradientTransform="matrix(0.9607 0.2777 0.2777 -0.9607 29.2693 352.1034)">
				<stop  offset="0" style="stop-color:#DD341E"/>
				<stop  offset="1" style="stop-color:#EF6F13"/>
			</linearGradient>
			<path class="st77" d="M323.6,185.5c0,0,37.8,0.8,59.2,11.4c0,0-75,83.4-63.4,138.9l-15.9-4.6C303.4,331.1,285.7,236,323.6,185.5z
				"/>
			
				<linearGradient id="SVGID_40_" gradientUnits="userSpaceOnUse" x1="288.9415" y1="76.5359" x2="288.9415" y2="247.3324" gradientTransform="matrix(0.9607 0.2777 0.2777 -0.9607 29.2693 352.1034)">
				<stop  offset="0" style="stop-color:#C9001E"/>
				<stop  offset="0.4586" style="stop-color:#CB041B"/>
				<stop  offset="0.9631" style="stop-color:#D01214"/>
				<stop  offset="1" style="stop-color:#D11313"/>
			</linearGradient>
			<path class="st78" d="M382.7,196.8c0,0-1.5,11.4-9.7,33.7c0,0-14.3,17.7-21.8,37.9c-10.6,28.5-1,96.8-1,96.8
				s-23.7-15.3-30.8-29.5C319.3,335.7,304.3,283.5,382.7,196.8z"/>
			
				<linearGradient id="SVGID_41_" gradientUnits="userSpaceOnUse" x1="286.6567" y1="72.9143" x2="282.7879" y2="99.9197" gradientTransform="matrix(0.9607 0.2777 0.2777 -0.9607 29.2693 352.1034)">
				<stop  offset="0" style="stop-color:#3909A3"/>
				<stop  offset="1" style="stop-color:#4C0C9D"/>
			</linearGradient>
			<path class="st79" d="M303.4,331.1c0,0,12.6,17.1,46.8,34.1c0,0-17.4-10.9-30.8-29.5L303.4,331.1z"/>
			
				<linearGradient id="SVGID_42_" gradientUnits="userSpaceOnUse" x1="265.2993" y1="107.6178" x2="265.2993" y2="152.3699" gradientTransform="matrix(0.969 0.2473 0.2473 -0.969 20.0618 370.4669)">
				<stop  offset="0" style="stop-color:#4370FF"/>
				<stop  offset="1" style="stop-color:#6872FF"/>
			</linearGradient>
			<path class="st80" d="M299.3,284.4l23.8,8.5c0,0-5.2,21.5-3.8,42.8c0,0-11.1-2.5-15.9-4.6C303.4,331.1,298.6,303.5,299.3,284.4z"
				/>
			
				<linearGradient id="SVGID_43_" gradientUnits="userSpaceOnUse" x1="296.4357" y1="86.8087" x2="296.4357" y2="150.0859" gradientTransform="matrix(0.969 0.2473 0.2473 -0.969 20.0618 370.4669)">
				<stop  offset="0" style="stop-color:#393BB4"/>
				<stop  offset="1" style="stop-color:#5434BB"/>
			</linearGradient>
			<path class="st81" d="M323.1,292.9c0,0,14,7.3,23.1,10.9c0,0-0.1,31.8,3.9,61.3c0,0-19.5-10.8-30.8-29.5
				C319.3,335.7,317.2,319.2,323.1,292.9z"/>
			
				<linearGradient id="SVGID_44_" gradientUnits="userSpaceOnUse" x1="295.5475" y1="92.8728" x2="295.5475" y2="241.2234" gradientTransform="matrix(0.969 0.2473 0.2473 -0.969 20.0618 370.4669)">
				<stop  offset="0" style="stop-color:#D9BADD"/>
				<stop  offset="1" style="stop-color:#DAC2E5"/>
			</linearGradient>
			<path class="st82" d="M378.6,213c0,0-27,24.4-42.5,65.4c-14.1,37.4-6.5,70.4-6.5,70.4l7.8,6.8c0,0-9.9-42.9,4.2-81.7
				s35.2-53.9,35.2-53.9L378.6,213z"/>
			
				<linearGradient id="SVGID_45_" gradientUnits="userSpaceOnUse" x1="278.6521" y1="96.364" x2="303.672" y2="96.364" gradientTransform="matrix(0.969 0.2473 0.2473 -0.969 20.0618 370.4669)">
				<stop  offset="0" style="stop-color:#987EDD"/>
				<stop  offset="0.4571" style="stop-color:#9C76D2"/>
				<stop  offset="1" style="stop-color:#A468BF"/>
			</linearGradient>
			<path class="st83" d="M314.8,342.5c0,0,10,5.2,14.7,6.4l7.8,6.8C337.3,355.6,325.7,353.2,314.8,342.5z"/>
			<path class="st84" d="M302.4,324.8c0,0,0.5,4.4,3.9,6.3s10.1,2.7,11,1.8c0.9-0.9,0.4-28,6.5-46.8s28.3-50.6,28.3-50.6
				s-35.4,53.1-32.7,100.3c0,0-10.6-2.1-15.9-4.6L302.4,324.8z"/>
			<path class="st85" d="M351.7,262.9c0,0-15.4,31.5-24.7,46.6c-9.3,15.1-1.1-32,14.4-59.1s30.5-42.4,33.2-42.5
				c2.7-0.2-6.5,19.1-11.8,30.1C357.7,249,351.7,262.9,351.7,262.9z"/>
			<path class="st86" d="M349.8,266.9c0,0-10.8,25.2-16.5,29.2s-1.1-30.1,12.4-48.5s17.9-13.5,15.8-6.5
				C359.4,248.1,349.8,266.9,349.8,266.9z"/>
			<path class="st87" d="M315.3,198.8c0,0,5.2-10.9,10.7-11.9s40.8,4.3,47.4,7.5c6.7,3.3-13.7,29.6-13.7,29.6l23.1-27.2
				c0,0-18.5-9.9-59.2-11.4C323.6,185.5,318.6,191.6,315.3,198.8z"/>
			<path class="st88" d="M302.2,273.2c-3-13.9,2.7-48.1,11.5-55.1c8.7-7,24.9,19.1,21.2,35.1c-3.7,16.1-11.6,32.7-18.4,33.8
				C302.4,289.3,302.2,273.2,302.2,273.2z"/>
			<g class="st7">
				<path class="st89" d="M346.1,269c-1.8-0.4-0.2-3.2,1.5-2.8C349.3,266.6,347.9,269.4,346.1,269z"/>
				<path class="st89" d="M308,303.9c0.5-1.8,3.2-0.1,2.7,1.6S307.5,305.7,308,303.9z"/>
				<path class="st89" d="M311.2,324.1c-1.9-1.1-1-2.2,0.7-2.7C313.6,320.8,312.3,324.7,311.2,324.1z"/>
				<path class="st89" d="M305.2,274.9c-1.9-1.1-1-2.2,0.7-2.7C307.6,271.6,306.3,275.5,305.2,274.9z"/>
				<path class="st89" d="M357.6,211.9c-1.9-1.1-1-2.2,0.7-2.7C360,208.6,358.7,212.6,357.6,211.9z"/>
				<path class="st89" d="M311.4,302.4c-0.5-3.2,0.8-4.6,2.7-4c1.9,0.6,2.2,5,0.8,5.6C313.5,304.6,311.6,303.7,311.4,302.4z"/>
				<path class="st89" d="M331.7,283.8c-1.6,0.4-0.3-2.9,0.6-2.2C333.1,282.2,332.5,283.5,331.7,283.8z"/>
				<path class="st89" d="M316.9,275.2c-0.3,0.3-0.1,1.3,0.3,1.2c0.3,0,0.9-0.7,0.5-1C317.3,275.1,316.9,275.2,316.9,275.2z"/>
				<path class="st89" d="M338.9,336.4c-0.9,0.1,0.2,2.1,0.8,2.7s1.1-1.2,1.3-1.7C341.1,336.9,339.7,336.4,338.9,336.4z"/>
				<path class="st89" d="M369.5,196.6c-0.9,0.1,0.2,2.1,0.8,2.7c0.6,0.5,1.1-1.2,1.3-1.7C371.6,197,370.3,196.5,369.5,196.6z"/>
				<path class="st89" d="M323,262.4c-0.9,0.1,0.2,2.1,0.8,2.7s1.1-1.2,1.3-1.7C325.2,262.9,323.8,262.4,323,262.4z"/>
				<path class="st89" d="M319.4,211.7c-0.5-2.1,1.9-3,2.9-2.5s0.1,0.9-0.5,2C321.1,212.2,319.5,212.4,319.4,211.7z"/>
				<path class="st89" d="M357.8,207.4c0-0.6,0.9-0.9,1.1-0.6c0.2,0.3,0.7,1.1-0.2,0.8C357.8,207.4,357.8,207.4,357.8,207.4z"/>
				<path class="st89" d="M334.5,194.2c0-0.6,0.9-0.9,1.1-0.6c0.2,0.3,0.7,1.1-0.2,0.8C334.5,194.2,334.5,194.2,334.5,194.2z"/>
			</g>
			<g>
				
					<linearGradient id="SVGID_46_" gradientUnits="userSpaceOnUse" x1="236.8106" y1="147.3951" x2="236.8106" y2="189.3197" gradientTransform="matrix(0.9347 0.3555 0.3555 -0.9347 50.777 307.8591)">
					<stop  offset="0" style="stop-color:#FF8113"/>
					<stop  offset="6.277724e-02" style="stop-color:#F36514"/>
					<stop  offset="0.2195" style="stop-color:#D82417"/>
					<stop  offset="0.2933" style="stop-color:#CD0A18"/>
					<stop  offset="0.5415" style="stop-color:#CB041B"/>
					<stop  offset="1" style="stop-color:#C9001E"/>
				</linearGradient>
				<path class="st90" d="M319.4,249.4c-2.2-7.1,3.5-31.7,19-33.6c13.8-1.7,4.3,25.1-2.8,33.6C328.4,258,320.9,254.2,319.4,249.4z"
					/>
				
					<radialGradient id="SVGID_47_" cx="253.519" cy="144.5658" r="13.1346" gradientTransform="matrix(0.9552 0.2961 0.4259 -1.374 28.9702 355.7068)" gradientUnits="userSpaceOnUse">
					<stop  offset="0" style="stop-color:#FFFFFF"/>
					<stop  offset="0.4142" style="stop-color:#FEFDFD"/>
					<stop  offset="0.6052" style="stop-color:#FCF6F5"/>
					<stop  offset="0.7505" style="stop-color:#F9EAE9"/>
					<stop  offset="0.8724" style="stop-color:#F4D9D6"/>
					<stop  offset="0.9788" style="stop-color:#EDC4BF"/>
					<stop  offset="0.9944" style="stop-color:#ECC0BB"/>
				</radialGradient>
				<path class="st91" d="M336.4,247.1c0,0.1-0.1,0.1-0.2,0.2c-0.5,0.6-0.9,1.2-1.4,1.7c-0.4,0.4-0.8,0.8-1.2,1.2
					c-0.5,0.5-1,0.9-1.5,1.2c-0.4,0.3-0.8,0.5-1.1,0.7c-0.8,0.5-1.7,0.8-2.5,0.9c-0.1,0-0.1,0-0.2,0s-0.2,0-0.3,0l0,0
					c-0.2,0-0.5,0-0.7,0s-0.5,0-0.7,0l0,0c-0.3,0-0.5-0.1-0.8-0.2c-1.2-0.3-2.3-1.1-3.4-2.2c-6.1-6.6,4-35.6,17.7-34.1
					C348.9,217.5,344.2,237,336.4,247.1z"/>
				
					<linearGradient id="SVGID_48_" gradientUnits="userSpaceOnUse" x1="256.4292" y1="172.0445" x2="256.4292" y2="182.9585" gradientTransform="matrix(0.9552 0.2961 0.2961 -0.9552 33.1049 342.3492)">
					<stop  offset="0" style="stop-color:#FF9331"/>
					<stop  offset="0.203" style="stop-color:#DB6A2A"/>
					<stop  offset="0.4566" style="stop-color:#B33D22"/>
					<stop  offset="0.6832" style="stop-color:#971C1D"/>
					<stop  offset="0.8721" style="stop-color:#850819"/>
					<stop  offset="1" style="stop-color:#7F0118"/>
				</linearGradient>
				<path class="st92" d="M336.2,247.3c-0.5,0.6-0.9,1.2-1.4,1.7c-0.4,0.4-0.8,0.8-1.2,1.2c-0.5,0.5-1,0.9-1.5,1.2
					c-0.4,0.3-0.8,0.5-1.1,0.7c-0.8,0.5-1.7,0.8-2.5,0.9c-0.1,0-0.1,0-0.2,0s-0.2,0-0.3,0l0,0c-0.2,0-0.5,0-0.7,0s-0.5,0-0.7,0l0,0
					c-0.3,0-0.5-0.1-0.8-0.2c-0.7-1.5-0.7-3.4,0-5.1c0.3-0.7,0.6-1.3,1-1.9c0.4-0.5,0.9-1,1.4-1.3c1.5-1.1,3.3-1.4,5-0.8
					C334.7,244.4,335.8,245.7,336.2,247.3z"/>
				<path class="st62" d="M334.8,249c-0.4,0.4-0.8,0.8-1.2,1.2c-0.5,0.5-1,0.9-1.5,1.2c-0.4,0.3-0.8,0.5-1.1,0.7
					c-0.8,0.5-1.7,0.8-2.5,0.9c-0.1,0-0.1,0-0.2,0s-0.2,0-0.3,0c-1.1-1.1-1.4-3-0.8-4.7c0.1-0.2,0.2-0.5,0.3-0.7
					c1-1.9,3.1-2.8,4.9-2.1C333.8,246.1,334.7,247.4,334.8,249z"/>
				<path class="st62" d="M328.5,253.1c-0.1,0-0.1,0-0.2,0s-0.2,0-0.3,0c-1.1-1.1-1.4-3-0.8-4.7c0.1-0.2,0.2-0.5,0.3-0.7
					C327.6,247.7,326,251.4,328.5,253.1z"/>
				<path class="st51" d="M327.2,253.2c-0.2,0-0.5,0-0.7,0C326.8,253,327,253.1,327.2,253.2z"/>
				
					<linearGradient id="SVGID_49_" gradientUnits="userSpaceOnUse" x1="238.9231" y1="176.7051" x2="238.9231" y2="188.6718" gradientTransform="matrix(0.9347 0.3555 0.3555 -0.9347 50.777 307.8591)">
					<stop  offset="0" style="stop-color:#5E1A1D"/>
					<stop  offset="0.3149" style="stop-color:#720F19"/>
					<stop  offset="0.7229" style="stop-color:#860415"/>
					<stop  offset="1" style="stop-color:#8D0013"/>
				</linearGradient>
				<path class="st93" d="M328.7,222.5c0,0,6-7.5,12.4-4.8c5.8,2.5,3.1,12.7,3.1,12.7s2.3-1.1,3.2-3.6c0.9-2.5-0.2-8.8-6.6-10.5
					C334.3,214.7,328.7,222.5,328.7,222.5z"/>
				<path class="st63" d="M328.3,245.6c-0.2,0.5-0.8,0.8-1.3,0.6s-0.8-0.8-0.6-1.3c0.2-0.5,0.8-0.8,1.3-0.6
					C328.3,244.5,328.5,245.1,328.3,245.6z"/>
			</g>
			<g>
				
					<linearGradient id="SVGID_50_" gradientUnits="userSpaceOnUse" x1="298.0685" y1="232.3042" x2="298.0685" y2="271.0156" gradientTransform="matrix(0.9954 9.540000e-02 9.540000e-02 -0.9954 -7.8151 453.1578)">
					<stop  offset="0" style="stop-color:#FF8113"/>
					<stop  offset="6.277724e-02" style="stop-color:#F36514"/>
					<stop  offset="0.2195" style="stop-color:#D82417"/>
					<stop  offset="0.2933" style="stop-color:#CD0A18"/>
					<stop  offset="0.5415" style="stop-color:#CB041B"/>
					<stop  offset="1" style="stop-color:#C9001E"/>
				</linearGradient>
				<path class="st94" d="M305.7,247.5c-2.6-5.5-2-28.5,9.2-34.7c9.9-5.5,6.8,20.4,2.8,29.8C313.6,252.3,307.5,251.3,305.7,247.5z"
					/>
				
					<radialGradient id="SVGID_51_" cx="234.1649" cy="142.4043" r="11.7962" gradientTransform="matrix(0.9552 0.2961 0.4259 -1.374 29.2508 354.8015)" gradientUnits="userSpaceOnUse">
					<stop  offset="0" style="stop-color:#FFFFFF"/>
					<stop  offset="0.4142" style="stop-color:#FEFDFD"/>
					<stop  offset="0.6052" style="stop-color:#FCF6F5"/>
					<stop  offset="0.7505" style="stop-color:#F9EAE9"/>
					<stop  offset="0.8724" style="stop-color:#F4D9D6"/>
					<stop  offset="0.9788" style="stop-color:#EDC4BF"/>
					<stop  offset="0.9944" style="stop-color:#ECC0BB"/>
				</radialGradient>
				<path class="st95" d="M317.9,240.6c-0.1,0.2-0.2,0.5-0.3,0.7c-0.2,0.6-0.5,1.2-0.8,1.7c-0.2,0.4-0.4,0.7-0.6,1.1
					c-0.3,0.5-0.6,1-0.9,1.5c-0.2,0.4-0.5,0.7-0.7,1c-0.6,0.7-1.2,1.2-1.8,1.6c-0.1,0.1-0.2,0.1-0.2,0.1c-0.2,0.1-0.4,0.2-0.6,0.3
					c-0.1,0-0.2,0.1-0.3,0.1c-0.7,0.2-1.4,0.2-2.1-0.1c-0.5-0.1-1-0.4-1.4-0.7c-5.5-3.9-2.2-31.9,8.1-34.7
					C322.9,211.4,322.2,229.5,317.9,240.6z"/>
				
					<linearGradient id="SVGID_52_" gradientUnits="userSpaceOnUse" x1="238.0756" y1="171.4236" x2="238.0756" y2="181.7138" gradientTransform="matrix(0.9552 0.2961 0.2961 -0.9552 33.1049 342.3492)">
					<stop  offset="0" style="stop-color:#FF9331"/>
					<stop  offset="0.203" style="stop-color:#DB6A2A"/>
					<stop  offset="0.4566" style="stop-color:#B33D22"/>
					<stop  offset="0.6832" style="stop-color:#971C1D"/>
					<stop  offset="0.8721" style="stop-color:#850819"/>
					<stop  offset="1" style="stop-color:#7F0118"/>
				</linearGradient>
				<path class="st96" d="M317.6,241.3c-0.2,0.6-0.5,1.2-0.8,1.7c-0.2,0.4-0.4,0.7-0.6,1.1c-0.3,0.5-0.6,1-0.9,1.5
					c-0.2,0.4-0.5,0.7-0.7,1c-0.6,0.7-1.2,1.2-1.8,1.6c-0.1,0.1-0.2,0.1-0.2,0.1c-0.2,0.1-0.4,0.2-0.6,0.3c-0.1,0-0.2,0.1-0.3,0.1
					c-0.7,0.2-1.4,0.2-2.1-0.1c-0.6-1-0.9-2.2-0.8-3.5c0-0.7,0.2-1.3,0.4-1.9c0.2-0.6,0.5-1.1,0.8-1.6c1-1.4,2.5-2.2,4.1-2.2
					C315.5,239.4,316.7,240.1,317.6,241.3z"/>
				<path class="st62" d="M316.9,243c-0.2,0.4-0.4,0.7-0.6,1.1c-0.3,0.5-0.6,1-0.9,1.5c-0.2,0.4-0.5,0.7-0.7,1
					c-0.6,0.7-1.2,1.2-1.8,1.6c-0.1,0.1-0.2,0.1-0.2,0.1c-0.2,0.1-0.4,0.2-0.6,0.3c-0.1,0-0.2,0.1-0.3,0.1c-0.9-0.8-1.5-2.1-1.4-3.5
					c0-0.2,0-0.5,0.1-0.7l0,0c0.4-1.9,1.9-3.4,3.7-3.3C315.2,241.1,316.2,241.9,316.9,243z"/>
				<path class="st62" d="M311.9,248.5c-0.1,0-0.2,0.1-0.3,0.1c-0.9-0.8-1.5-2.1-1.4-3.5c0-0.2,0-0.5,0.1-0.7
					C310.3,244.8,310.2,247.4,311.9,248.5z"/>
				
					<linearGradient id="SVGID_53_" gradientUnits="userSpaceOnUse" x1="997.9285" y1="121.4224" x2="997.9285" y2="132.6192" gradientTransform="matrix(-0.8422 -0.4662 0.4765 -0.8607 1096.2645 792.8705)">
					<stop  offset="0" style="stop-color:#5E1A1D"/>
					<stop  offset="0.3149" style="stop-color:#720F19"/>
					<stop  offset="0.7229" style="stop-color:#860415"/>
					<stop  offset="1" style="stop-color:#8D0013"/>
				</linearGradient>
				<path class="st97" d="M321.1,225.3c0,0,1.5-8.7-3.2-11.2c-4.3-2.3-8.8,6.5-8.8,6.5s-1-2.9,0.1-5s5.6-5.3,9.7-2.1
					C323,216.8,321.1,225.3,321.1,225.3z"/>
				<path class="st63" d="M310.4,241.8c0,0.5-0.5,0.9-1,0.8c-0.5,0-0.9-0.5-0.8-1c0-0.5,0.5-0.9,1-0.8S310.4,241.3,310.4,241.8z"/>
			</g>
			
				<linearGradient id="SVGID_54_" gradientUnits="userSpaceOnUse" x1="281.5586" y1="248.5118" x2="281.5586" y2="259.1887" gradientTransform="matrix(0.969 0.2473 0.2473 -0.969 20.0618 370.4669)">
				<stop  offset="0" style="stop-color:#5E1A1D"/>
				<stop  offset="0.3149" style="stop-color:#720F19"/>
				<stop  offset="0.7229" style="stop-color:#860415"/>
				<stop  offset="1" style="stop-color:#8D0013"/>
			</linearGradient>
			<path class="st98" d="M346.7,190.7c0,0,5.4-3.9,10.1-1.7s6.8,12.6,6.8,12.6S358.1,190.1,346.7,190.7z"/>
			
				<linearGradient id="SVGID_55_" gradientUnits="userSpaceOnUse" x1="253.61" y1="247.7426" x2="253.61" y2="258.0415" gradientTransform="matrix(0.969 0.2473 0.2473 -0.969 20.0618 370.4669)">
				<stop  offset="0" style="stop-color:#5E1A1D"/>
				<stop  offset="0.3149" style="stop-color:#720F19"/>
				<stop  offset="0.7229" style="stop-color:#860415"/>
				<stop  offset="1" style="stop-color:#8D0013"/>
			</linearGradient>
			<path class="st99" d="M335.9,188c0,0-0.4-4-4.5-4.2s-11.4,7.6-11.4,7.6S328.4,185.9,335.9,188z"/>
			
				<linearGradient id="SVGID_56_" gradientUnits="userSpaceOnUse" x1="308.3185" y1="174.5726" x2="308.3185" y2="242.9594" gradientTransform="matrix(0.969 0.2473 0.2473 -0.969 20.0618 370.4669)">
				<stop  offset="0" style="stop-color:#DD341E"/>
				<stop  offset="1" style="stop-color:#EF6F13"/>
			</linearGradient>
			<path class="st100" d="M402.9,219.9c-1.5,2.2-14.6,1.6-31.9,13.5c-10.3,7.1-22.2,18.6-33.9,37.8l2.9-7.2c0,0,10.6-19.5,29.8-33.4
				c9.1-6.6,20.2-11.9,33-13.2C402.7,217.4,404.6,217.4,402.9,219.9z"/>
			
				<linearGradient id="SVGID_57_" gradientUnits="userSpaceOnUse" x1="308.2454" y1="174.5725" x2="308.2454" y2="240.5861" gradientTransform="matrix(0.969 0.2473 0.2473 -0.969 20.0618 370.4669)">
				<stop  offset="0" style="stop-color:#C9001E"/>
				<stop  offset="0.4586" style="stop-color:#CB041B"/>
				<stop  offset="0.9631" style="stop-color:#D01214"/>
				<stop  offset="1" style="stop-color:#D11313"/>
			</linearGradient>
			<path class="st101" d="M381.2,240.3c-9.8,8.7-20,17.5-23.7,20.8c-8.1,7.4-13.7,11.8-13.7,11.8l-6.7-1.7c0,0,6.5-16.9,31.8-36.3
				c16.6-12.8,26.1-15.2,30.6-15.4c2.4-0.1,3.4,0.4,3.4,0.4C404.5,219.6,393.1,229.8,381.2,240.3z"/>
			
				<linearGradient id="SVGID_58_" gradientUnits="userSpaceOnUse" x1="236.8932" y1="231.8025" x2="236.8932" y2="263.3189" gradientTransform="matrix(0.969 0.2473 0.2473 -0.969 20.0618 370.4669)">
				<stop  offset="0" style="stop-color:#393BB4"/>
				<stop  offset="1" style="stop-color:#5434BB"/>
			</linearGradient>
			<path class="st102" d="M310.1,205.2l-5.8-3.6c0,0,3.4-12.5,6.5-23.7c1.5-2.6,2.5-3.8,2.5-3.8C316.7,170.9,313,188.1,310.1,205.2z
				"/>
			
				<linearGradient id="SVGID_59_" gradientUnits="userSpaceOnUse" x1="319.9946" y1="215.4606" x2="319.9946" y2="240.6309" gradientTransform="matrix(0.969 0.2473 0.2473 -0.969 20.0618 370.4669)">
				<stop  offset="0" style="stop-color:#393BB4"/>
				<stop  offset="1" style="stop-color:#5434BB"/>
			</linearGradient>
			<path class="st103" d="M381.2,240.3l-10.2-6.9c5-3.8,18.8-9.9,28.5-13.9c2.4-0.1,3.4,0.4,3.4,0.4
				C404.5,219.6,393.1,229.8,381.2,240.3z"/>
			
				<linearGradient id="SVGID_60_" gradientUnits="userSpaceOnUse" x1="319.0912" y1="219.6207" x2="319.0912" y2="242.9903" gradientTransform="matrix(0.969 0.2473 0.2473 -0.969 20.0618 370.4669)">
				<stop  offset="0" style="stop-color:#4370FF"/>
				<stop  offset="1" style="stop-color:#6872FF"/>
			</linearGradient>
			<path class="st104" d="M402.9,219.9c-1.5,2.2-14.6,1.6-31.9,13.5l-1.3-2.8c9.1-6.6,20.2-11.9,33-13.2
				C402.7,217.4,404.6,217.4,402.9,219.9z"/>
			
				<linearGradient id="SVGID_61_" gradientUnits="userSpaceOnUse" x1="233.384" y1="233.6713" x2="233.384" y2="262.8011" gradientTransform="matrix(0.969 0.2473 0.2473 -0.969 20.0618 370.4669)">
				<stop  offset="0" style="stop-color:#4370FF"/>
				<stop  offset="1" style="stop-color:#6872FF"/>
			</linearGradient>
			<path class="st105" d="M304.3,201.6l-2.6-0.5c6.8-23.5,10-26.5,11.5-27.1C314.6,173.6,308.8,185.6,304.3,201.6z"/>
			<path class="st106" d="M302.4,209.2c-3.5,14,0.3,15.8,3.5,9.9c3.2-5.9,7.7-34.5,6.6-36.4C311.3,180.8,305.4,196.8,302.4,209.2z"
				/>
			<path class="st106" d="M358.4,243.8c-4.8,7.5,13.3,2.8,24.2-5.9c10.9-8.7,16-16.4,16-16.4S375.5,226,358.4,243.8z"/>
			<g>
				
					<linearGradient id="SVGID_62_" gradientUnits="userSpaceOnUse" x1="247.3568" y1="129.0848" x2="247.3568" y2="141.909" gradientTransform="matrix(0.9565 0.2916 0.3531 -1.1585 30.444 345.0266)">
					<stop  offset="3.631280e-02" style="stop-color:#C42513"/>
					<stop  offset="0.1942" style="stop-color:#BC2414"/>
					<stop  offset="0.4385" style="stop-color:#A62216"/>
					<stop  offset="0.7368" style="stop-color:#831E19"/>
					<stop  offset="1" style="stop-color:#5E1A1D"/>
				</linearGradient>
				<path class="st107" d="M319.9,262.5c-3.2,3.1-7.2,5.8-9.3,4.4c-1.2-0.8-2-2.3-2.6-4c-0.2-0.6-0.3-1.1-0.4-1.7
					c-0.6-3.2-0.1-6.6,1.2-7.1c9.9,3.3,16.2-1.2,15.9,1.8C324.6,257.2,322.5,260,319.9,262.5z"/>
				<path class="st108" d="M320.4,261.7c0,0-0.5-1.6-2.5-2.2c-2.1-0.6-8.8,0-9.5,1.9l-0.2-2c-0.7-2.7-0.5-5.6,0.8-5.9
					c9.9,3.3,15.9-0.2,15.8,2.2C324.7,256.8,322.8,259.7,320.4,261.7z"/>
				
					<radialGradient id="SVGID_63_" cx="244.9103" cy="179.8038" r="4.2334" gradientTransform="matrix(0.9004 0.2744 0.2916 -0.9565 41.4631 361.8492)" gradientUnits="userSpaceOnUse">
					<stop  offset="0" style="stop-color:#FFFFFF"/>
					<stop  offset="0.4734" style="stop-color:#FFFDFD"/>
					<stop  offset="0.6917" style="stop-color:#FDF6F5"/>
					<stop  offset="0.8571" style="stop-color:#FBEAE9"/>
					<stop  offset="0.9958" style="stop-color:#F8DAD7"/>
					<stop  offset="1" style="stop-color:#F8D9D6"/>
				</radialGradient>
				<path class="st109" d="M319.9,255.6c0,0-2,4.1-4.2,4.7c-0.5,0.2-1,0.1-1.3-0.1c-0.9-0.5-0.9-2.1-0.9-2.1s-0.8,1.5-1.4,1.4
					s-2.3-1.7-2.1-4.4l0,0c0-0.3,0-0.5,0.1-0.8C310.2,254.3,313.2,255.4,319.9,255.6z"/>
				<path class="st110" d="M319.9,255.6c0,0-2,4.1-4.2,4.7c-0.5,0.2-1,0.1-1.3-0.1c2.5,0.2,4.4-4.4,4.4-4.4s-3.5-0.7-4.4-0.3
					c-0.2,0.1-0.7,1.9-0.9,2.4c0.1-0.5,0.4-2.5,0.3-2.6c-0.2-0.1-3.5-0.3-3.8-0.3l0,0c0-0.3,0-0.5,0.1-0.8
					C310.2,254.3,313.2,255.4,319.9,255.6z"/>
				<path class="st111" d="M307.4,259.6c0,0,0.3,8.2,3.6,10s9.7-7.6,9.7-7.6s-5.5,6.7-9.4,5.2C307.4,265.8,307.4,259.6,307.4,259.6z
					"/>
			</g>
		</g>
		<path class="st112" d="M361.2,347.8c0,0,1-6.1,9.6-7.6C370.8,340.2,366.5,347.6,361.2,347.8z"/>
		<path class="st112" d="M422,223.6c0,0,1-6.1,9.6-7.6C431.6,216,427.3,223.3,422,223.6z"/>
		<path class="st112" d="M385.9,350.1c0,0,3.3-2.3,7.8-1C393.7,349.1,389.4,351.1,385.9,350.1z"/>
		<path class="st112" d="M376.8,305.1c0,0,3.3-2.3,7.8-1C384.6,304.1,380.3,306.2,376.8,305.1z"/>
		<path class="st112" d="M357.8,354.1c0,0,4,0.1,6.9,3.9C364.6,358,360,357.1,357.8,354.1z"/>
	</g>
</g>
</svg>
